<?xml version="1.0" encoding="utf-8"?>
<!-- Generator: Adobe Illustrator 28.2.0, SVG Export Plug-In . SVG Version: 6.00 Build 0)  -->
<svg version="1.0" id="katman_1" xmlns="http://www.w3.org/2000/svg" xmlns:xlink="http://www.w3.org/1999/xlink" x="0px" y="0px"
	 viewBox="0 0 730.3 647.5" style="enable-background:new 0 0 730.3 647.5;" xml:space="preserve">
<style type="text/css">
	.st0{fill:#102330;}
</style>
<path class="st0" d="M384.7,525.5l0.6,3.6l0.5,3.9l0.5,4.3l0.7,5.9l0.5,4.6l0.4,3.3l0.6,4.7l0.5,4.7l0.5,4.7l0.4,4.7l0.4,4.6
	l0.4,4.6l0.3,4.6l0.3,4.6l0.1,1.7l0,1.7l0,1.7v1.7l0,1.7l-0.1,1.7l-0.1,1.7l-0.1,1.7l-0.1,1.3l-0.1,1.3l-0.2,1.3l-0.2,1.3l-0.2,1.3
	l-0.2,1.3l-0.3,1.3l-0.3,1.2l-0.3,1.2l-0.3,1.2l-0.4,1.2l-0.4,1.2l-0.4,1.2l-0.4,1.2l-0.5,1.2l-0.5,1.2l-0.8,1.8l-0.9,1.8l-1,1.8
	l-1,1.7l-1.1,1.7l-1.2,1.7l-1.2,1.6l-1.3,1.6l-1.3,1.6l-1.4,1.5l-1.5,1.5l-1.5,1.5l-1.6,1.4l-1.6,1.4l-1.7,1.4l-1.7,1.3l-0.2,0.1
	l-0.2,0l-0.2,0l-0.2-0.1l-2.1-1.8l-2-1.8l-1.9-1.8l-0.9-0.9l-0.9-0.9l-0.9-0.9l-0.9-0.9l-0.8-0.9l-0.8-0.9l-0.8-0.9l-0.8-0.9
	l-0.7-0.9l-0.7-0.9l-0.7-1l-0.7-1l-0.6-1l-0.6-1l-0.6-1l-0.6-1l-0.5-1l-0.5-1l-0.5-1l-0.5-1l-0.5-1l-0.4-1l-0.4-1l-0.4-1l-0.4-1
	l-0.3-1.1l-0.3-1l-0.3-1l-0.3-1l-0.2-1.1l-0.2-1.1l-0.2-1.1l-0.2-1.1l-0.2-1.1l-0.3-2.4l-0.2-2.5l-0.2-2.5l-0.1-2.5l-0.1-2.5l0-2.5
	l0-2.5l0.1-2.5l0.2-3.9l0.2-3.9l0.3-4l0.3-4l0.3-4.1l0.4-4.1l0.4-4.1l0.4-4.2l0.4-4.2l0.5-4.2l0.5-4.3l0.5-4.3l0.6-4.4l0.6-4.4
	l0.6-4.5l0.7-4.5l0-0.1l-0.1,0l-0.3-0.1h0l0,0l-2,7l-1.9,7l-1.8,7l-1.7,7l-1.9,7.8l-2.5,10.8l-2.2,9.5l-1.7,6.9l-1.5,6.3l-1.5,5.8
	l-1.5,5.6l-1.5,5.3l-1.4,5.1l-1.4,4.9l-0.1,0.2l-0.1,0.1l-0.1,0.1l0,0l-0.2,0.1l-0.2,0l-2.4,0.1l-2.4,0l-2.4-0.1l-2.4-0.1l-2.4-0.2
	l-2.4-0.3l-2.4-0.3l-2.4-0.4l-2.4-0.5l-2.4-0.6l-2.4-0.6l-2.4-0.7l-2.5-0.8l-2.5-0.8l-2.4-0.9l-2.5-1l-0.1,0l-0.1-0.1l-0.1-0.2
	l0-0.2l0.1-0.2l1.2-1.5l1.2-1.5l1.2-1.5l1.2-1.5l1.1-1.5l1.1-1.5l1.1-1.5l1-1.5l1-1.5l1-1.5l1-1.5l0.9-1.4l0.9-1.4l0.9-1.5l0.8-1.4
	l0.8-1.5l1.2-2.2l1.2-2.3l1.2-2.4l1.1-2.5l1.1-2.5l1.1-2.6l1.1-2.7l1.1-2.8l1.1-2.8l1.1-2.9l1.1-3.1l1.1-3.3l1.1-3.4l1.2-3.7
	l3.1-9.8l0.9-2.8v0l0,0l-0.3-0.1l-0.1,0l-0.1,0l0,0l0,0l0,0.1l-1.4,2.8l-1.4,2.8l-1.5,2.7l-1.5,2.7l-1.5,2.7l-1.6,2.6l-1.6,2.6
	l-1.6,2.5l-1.6,2.5l-1.6,2.4l-1.7,2.4l-1.7,2.3l-1.7,2.3l-1.8,2.2l-1.8,2.2l-1.8,2.2l-1.2,1.4l-1.2,1.3l-1.3,1.3l-1.3,1.3l-1.3,1.2
	l-1.3,1.2l-1.3,1.1l-1.3,1.1l-1.3,1l-1.3,1l-1.3,0.9l-1.3,0.8l-1.3,0.8l-1.2,0.7l-1.2,0.6l-1.2,0.5L271,591l-0.7,0.2l-0.7,0.2
	l-0.8,0.2l-0.8,0.1l-0.8,0.1l-0.8,0.1l-0.8,0l-0.9,0l-0.9,0l-0.9-0.1l-0.9-0.1l-0.9-0.2l-0.9-0.2l-1-0.2l-1-0.3l-1-0.3l-1-0.3
	l-1-0.4l-1-0.4l-1-0.5l-1-0.5l-1.1-0.5l-1.1-0.5l-1.1-0.6l-1.1-0.6l-1.1-0.7l-1.1-0.7l-1.1-0.7l-1.1-0.7l-1-0.8l-1-0.8l-0.2-0.2
	l-0.2-0.2l-0.1-0.2v-0.1l0,0l0.1-0.1l0.2-0.1l0.2-0.1l0.3-0.1l0.7,0l0.7,0l0.5-0.1l0.1,0l1.9-0.6l1.8-0.6l1.8-0.6l1.8-0.7l1.8-0.7
	l1.7-0.8l1.7-0.8l1.7-0.8l1.6-0.8l1.6-0.9l1.6-0.9l1.6-0.9l1.5-1l1.5-1l1.5-1.1l1.5-1.1l0,0l0,0l0,0l1-0.8l1-0.8l1.5-1.3l1.5-1.3
	l1.5-1.3l1.4-1.4l1.4-1.4l1.4-1.5l1.4-1.5l1.3-1.5l1.3-1.6l1.3-1.6l1.3-1.6l1.2-1.7l1.2-1.7l1.2-1.7l1.2-1.8l1.2-1.8l1.1-1.8
	l1.1-1.9l1.1-1.9l1.1-2l1-2l1-2l1-2.1l1-2.1l0.9-2.1l0.9-2.2l0.9-2.2l0.9-2.2l0.9-2.3l0.8-2.3l0.8-2.3l0.8-2.4l0.3-0.9l0.2-0.6
	l0-0.2l0-0.2l0-0.1l0-0.1l0,0l0,0l0,0l-0.1,0l-0.1,0.1l-0.1,0.1l-0.2,0.2l-0.4,0.5l-0.5,0.8l-1.5,2.3l-1.5,2.3l-1.6,2.3l-1.6,2.2
	l-1.6,2.2l-1.7,2.2l-1.7,2.2l-1.8,2.2l-1.8,2.1l-1.9,2.1l-1.9,2.1l-1.9,2.1l-2,2l-2,2l-2.1,2l-2.1,2l-1.4,1.3l-1.4,1.2l-1.4,1.2
	l-1.5,1.2l-1.5,1.1l-1.5,1.1l-1.5,1.1l-1.5,1l-1.5,1l-1.5,0.9l-1.5,0.9l-1.5,0.8l-1.5,0.8l-1.5,0.8l-1.5,0.7l-1.5,0.7l-1.5,0.6
	l-1.5,0.6l-1.5,0.5l-1.5,0.5l-1.5,0.4l-1.5,0.4l-1.5,0.3l-1.5,0.3l-1.5,0.3l-1.5,0.2l-1.5,0.2l-1.5,0.1l-1.5,0.1l-1.5,0l-1.4,0
	l-1.4-0.1l-1.1-0.1l-1.1-0.1l-1.1-0.1l-1.1-0.2l-0.8-0.2l-0.8-0.2l-0.8-0.2l-0.8-0.2l-0.8-0.2l-0.8-0.3l-0.8-0.3l-0.8-0.3l-0.8-0.3
	l-0.8-0.3l-0.8-0.4l-0.8-0.4l-0.8-0.4l-0.8-0.4l-1.6-0.9l-1.6-1l-1.6-1.1l-1.6-1.2l-1.6-1.3l-1.7-1.4l-1.7-1.6l-1.7-1.7l-1.8-1.8
	l-0.1-0.1l-0.1-0.2l0-0.2l0-0.2l0.1-0.2l0.1-0.1l0.1-0.1l0.1-0.1l0,0l0.2-0.1l3.2-0.4l3.1-0.5l3.1-0.5l3-0.6l3-0.7l2.9-0.7l2.8-0.8
	l2.8-0.9l1.4-0.5l1.4-0.5l1.4-0.5l1.3-0.5l1.3-0.5l1.3-0.5l1.3-0.6l1.3-0.6l1.3-0.6l1.3-0.6l1.3-0.6l1.3-0.6l1.2-0.7l1.2-0.7
	l1.2-0.7l1.2-0.7l1.3-0.8l1.3-0.8l1.3-0.8l1.3-0.9l1.3-0.9l1.2-0.9l1.2-0.9l1.2-1l2-1.6l2-1.7l2-1.7l1.9-1.8l1.9-1.8l1.8-1.8
	l1.8-1.9l1.7-1.9l1.7-1.9l1.6-1.9l1.6-2l1.5-2l1.5-2l1.4-2l1.3-2.1l1.3-2.1l1.2-2.1l1.2-2.1l1.1-2.1l1-2.1l1-2.1l0.9-2.1l0.8-2.2
	l0.8-2.1l0.7-2.2l0.7-2.2l0.6-2.2l0.5-2.2l0.5-2.2l0.4-2.2l0.3-2.2l0.3-2.2l0.2-2.5l0.2-2.5l0.1-2.5l0.1-2.5l0-2.5l-0.1-2.5
	l-0.1-2.5l-0.2-2.5l0,0l0,0l0,0l0,0l0,0l-0.1-1.6l-0.2-1.6l-0.2-1.6l-0.2-1.6l-0.2-1.6l-0.3-1.5l-0.3-1.6l-0.3-1.5l0-0.1l-0.1-0.1
	l-0.1-0.1l-0.1,0l-0.1,0l-0.1,0l-0.1,0l-0.1,0l0,0l-0.1,0l-1.7,1.1l-1.7,1.1l-1.7,1l-1.8,1l-1.8,1l-1.8,0.9l-1.8,0.9l-1.8,0.9
	l-1.8,0.8l-1.8,0.8l-1.8,0.8l-1.8,0.7l-1.8,0.7l-1.8,0.6l-1.8,0.6l-1.8,0.6l-1.8,0.5l-1.8,0.5l-1.9,0.5l-1.9,0.4l-1.9,0.4l-1.9,0.3
	l-1.9,0.3l-1.9,0.3l-1.9,0.2l-1.9,0.2l-1.9,0.1l-1.9,0.1l-1.9,0.1l-1.9,0l-1.9,0l-1.9-0.1l-2-0.1l-2-0.2l-1.1-0.1l-1.1-0.1l-1.1-0.2
	l-1.2-0.2l-1.2-0.2l-1.2-0.2l-2.5-0.5l-2.6-0.6l-2.8-0.8l-3-0.9l-3.4-1.1l-0.5-0.2l-0.4-0.2l-0.1-0.1l-0.1-0.1l0-0.1l0-0.1l0,0l0,0
	l0,0l0-0.1l0.1-0.1l0.1-0.1l0.1-0.1l0.4-0.1l0.6-0.1l1.9-0.3l1.9-0.3l1.9-0.4l1.8-0.4l1.8-0.5l1.8-0.5l1.8-0.5l1.8-0.6l1.7-0.6
	l1.7-0.6l1.7-0.7l1.6-0.7l1.6-0.7l1.6-0.8l1.6-0.8l1.5-0.8l1.5-0.9l1.5-0.9l1.4-0.9l1.4-1l1.4-1l1.3-1l1.3-1l1.3-1.1l1.2-1.1
	l1.2-1.1l1.2-1.1l1.1-1.2l1.1-1.2l1.1-1.2l1-1.3l1-1.3l0.6-0.8l0.6-0.8l0.6-0.9l0.6-0.9l0.6-0.9l0.6-1l1.1-2l1.1-2.1l1.1-2.4
	l1.2-2.6l1.4-3.3l0.1-0.2v-0.1l0,0l-0.1,0l-0.1,0l-0.2,0.1l-2.3,1.3l-2.3,1.3l-2.3,1.2l-2.3,1.2l-2.3,1.2l-2.3,1.1l-2.3,1.1l-2.3,1
	l-2.3,1l-2.3,1l-2.3,0.9l-2.3,0.9l-2.3,0.8l-2.4,0.8l-2.4,0.8l-2.4,0.7l-2.4,0.7l-2.3,0.6l-2.4,0.6l-2.4,0.5l-2.4,0.5l-2.4,0.5
	l-2.4,0.4l-2.4,0.4l-2.4,0.3l-2.4,0.3l-2.4,0.3l-2.4,0.2l-2.4,0.2l-2.4,0.1l-2.4,0.1l-2.4,0.1l-2.1,0l-2.1,0l-2.1,0l-2.1-0.1
	l-2.3-0.1l-2.2-0.2l-2.3-0.2l-2.3-0.3l-2.3-0.3l-2.3-0.4l-2.3-0.4l-2.3-0.5l-2.3-0.5l-2.3-0.6l-2.3-0.6l-2.3-0.7l-2.3-0.8l-2.3-0.8
	l-2.3-0.8l-2.3-0.9L147,405l-0.4-0.1l-0.2-0.1l-0.2-0.1l0,0l0,0l-0.1-0.1l-0.1-0.2l-0.1-0.1l0-0.1v-0.1l0-0.1l0,0l0,0l0,0l0.1-0.1
	l0.1,0l0.1,0l0.1,0l2-0.2l2-0.2l2-0.2l2-0.2l2-0.2l2-0.3l2-0.3l2-0.3l2-0.3l2-0.4l2-0.4l2-0.4l2-0.4l2-0.5l2-0.5l2-0.5l2-0.5
	l1.9-0.6l1.9-0.6l1.9-0.6l1.9-0.7l1.8-0.7l1.8-0.8l1.8-0.8l1.8-0.8l1.7-0.9l1.7-0.9l1.7-0.9l1.6-1l1.6-1l1.6-1l1.6-1.1l0,0l0,0l0,0
	l0,0l1.5-1.1l1.5-1.1l1.5-1.2l1.4-1.2l1.4-1.2l1.4-1.3l1.4-1.3l1.3-1.3l1.3-1.4l1.3-1.4l1.3-1.4l1.2-1.5l1.2-1.5l1.2-1.5l1.2-1.6
	l1.1-1.6l0.2-0.3l0.1-0.2l0-0.2v-0.1l0,0l0,0l0,0l0,0l0,0l-0.1,0l0,0l-0.2,0l-0.2,0.1l-0.3,0.2l-0.7,0.4l-1.3,0.7l-1.3,0.6l-1.4,0.5
	l-1.4,0.5l-3.1,1l-3,0.9l-3.1,0.9l-3,0.8l-3,0.8l-3,0.7l-3,0.7l-3,0.6l-3,0.6l-3,0.5l-3,0.5l-3,0.4l-3,0.4l-2.9,0.3l-3,0.3L173,376
	l-2.9,0.2l-2.9,0.2l-2.9,0.1l-2.9,0.1l-2.9,0l-2.9,0l-2.9-0.1l-2.8-0.1l-2.8-0.2l-2.8-0.2l-2.8-0.2l-2.8-0.3l-2.8-0.3l-2.8-0.4
	l-2.8-0.4l-2.8-0.5l-1.8-0.3l-1.8-0.4l-1.7-0.4l-1.7-0.4l-1.6-0.4l-1.6-0.4l-1.6-0.4l-1.6-0.5l-1.6-0.5l-1.6-0.5l-1.6-0.5l-1.6-0.6
	l-1.6-0.6l-1.6-0.6l-1.6-0.6l-1.5-0.7l-1.5-0.7l-1.5-0.7l-1.5-0.7l-1.5-0.7l-1.5-0.8l-1.5-0.8l-1.5-0.8l-1.5-0.8l-1.5-0.9l-1.5-0.9
	l-1.4-0.9l-1.4-0.9l-1.4-0.9l-1.4-1l-1.4-1l-1.4-1l-1.4-1l-1.4-1l-1.4-1l-1.3-1.1l-0.1-0.1l0-0.1l0-0.1l0.1-0.1l0.1-0.1l0.1,0l0.1,0
	l0.1,0l5.4,0.8l5.2,0.8l5.1,0.7l4.9,0.7l4.8,0.6l4.6,0.5l4.4,0.5l4.3,0.4l2.8,0.3l2.8,0.2l2.8,0.2l2.8,0.2l2.9,0.1l2.9,0.1l2.9,0.1
	l2.9,0l2.9,0l2.9,0l2.9,0l2.9-0.1l2.9-0.1l3-0.1l3-0.2l3-0.2l3-0.2l3-0.3l3-0.3l3-0.3l3-0.4l3-0.4l3-0.4l3-0.4l3-0.5l3-0.5l3-0.5
	l3-0.6l3.1-0.6l3-0.6l3.1-0.7l3-0.7l4.3-1l4.4-1.1l4.5-1.2l4.5-1.2l4.6-1.3l4.7-1.4l4.8-1.5l4.9-1.6l0.1-0.1l0.1-0.1l0.1-0.1l0-0.1
	l0,0l0,0l0-0.1l0-0.1l-0.1-0.1l-0.1-0.1l-2.7-2.1l-2.7-2.1l-2.7-2.2l-2.7-2.3l-0.5-0.4l-0.5-0.3l-0.4-0.2l-0.4-0.1l-0.4,0l-0.4,0
	l-0.4,0.1l-0.5,0.1l-3.2,1l-3.2,1l-3.3,0.9l-3.3,0.9l-3.3,0.9l-3.4,0.8l-3.4,0.8l-3.4,0.7l-3.4,0.7l-3.5,0.6l-3.5,0.6l-3.5,0.5
	l-3.5,0.5l-3.5,0.5l-3.6,0.4l-3.6,0.4l-3.6,0.3l-3.6,0.3l-3.6,0.2l-3.6,0.2l-3.6,0.1l-3.6,0.1l-3.6,0l-3.6,0l-3.6-0.1l-3.6-0.1
	l-3.6-0.2l-3.6-0.2l-3.6-0.2l-3.6-0.3l-3.5-0.3l-3.5-0.4l-3-0.4l-3-0.4l-3-0.5l-2.9-0.6l-2.9-0.6l-2.9-0.7l-2.9-0.7l-2.9-0.8
	l-2.8-0.8l-2.8-0.9l-2.8-0.9l-2.7-1l-2.7-1l-2.7-1.1l-2.6-1.2l-2.6-1.2l-2.5-1.2l-2.5-1.3l-2.4-1.3l-2.4-1.4l-2.4-1.4l-2.3-1.5
	l-2.3-1.5l-2.2-1.6l-2.2-1.6l-2.1-1.6l-2-1.7l-2-1.7l-1.9-1.8l-1.9-1.8l-1.8-1.9l-1.8-1.9l-0.1-0.1l-0.1-0.1l0-0.2l0-0.2l0.1-0.2
	l0.1-0.1l0.2-0.1l0.2,0l0.1,0l1.8,1l1.8,1l1.9,0.9l1.9,0.9l2,0.9l2.1,0.9l2.1,0.8l2.2,0.8l2.2,0.8l2.3,0.8l2.4,0.8l2.4,0.8l2.5,0.7
	l2.6,0.7l2.7,0.7l2.8,0.7l3.2,0.8l3.3,0.7l3.3,0.7l3.3,0.6l3.3,0.6l3.3,0.5l3.4,0.5l3.4,0.4l3.4,0.4l3.4,0.4l3.4,0.3l3.5,0.3
	l3.5,0.2l3.5,0.2l3.5,0.1l3.6,0.1l3.5,0h3.4l3.4,0l3.3,0l3.2-0.1l3.2-0.1l3.1-0.1l3.1-0.2l3-0.2l3-0.2l2.9-0.2l2.9-0.3l2.9-0.3
	l2.8-0.3l2.8-0.4l2.8-0.4l2.7-0.4l2.7-0.4l2.7-0.5l2.6-0.5l2.6-0.6l2.6-0.6l2.5-0.6l2.5-0.6l2.5-0.7l2.4-0.7l2.4-0.7l2.4-0.8
	l2.3-0.8l2.3-0.8l2.3-0.9l2.2-0.9l1.2-0.5l1.2-0.6l1.1-0.6l1-0.7l0.5-0.4l0.3-0.3l0.1-0.1l0.1-0.1l0-0.1l0-0.1l0,0l0,0l0,0l0-0.1
	l-0.1-0.1l-0.1,0l-0.2,0l-0.4,0l-0.6,0l-6.3,0.5l-6.4,0.5l-6.5,0.4l-6.6,0.4l-6.7,0.4l-6.9,0.3l-7,0.3l-7.1,0.3l-3.3,0.1l-3.3,0.1
	l-3.2,0l-3.2,0l-3.2,0l-3.2,0l-3.1-0.1l-3.1-0.1l-3.1-0.1l-3.1-0.2l-3-0.2l-3-0.2l-3-0.2l-2.9-0.3l-2.9-0.3l-2.9-0.3l-2.9-0.4
	l-2.9-0.4l-2.9-0.5l-2.9-0.5l-2.9-0.5l-2.9-0.6l-2.9-0.6l-2.9-0.7l-2.9-0.8l-2.9-0.8l-2.9-0.8l-2.9-0.9l-2.9-0.9l-2.9-1l-2.9-1
	l-2.9-1.1l-1.6-0.6l-1.6-0.6l-1.6-0.7l-1.6-0.7l-1.6-0.7l-1.6-0.7l-1.5-0.7l-1.5-0.8l-1.5-0.8l-1.5-0.8l-1.5-0.8l-1.5-0.8l-1.5-0.8
	l-1.4-0.9l-1.4-0.9l-1.4-0.9l-1.4-0.9l-1.4-0.9l-1.4-0.9l-1.4-1l-1.3-1l-1.3-1l-1.3-1l-1.3-1l-1.2-1l-1.2-1l-1.2-1.1l-1.2-1.1
	l-1.2-1.1l-1.2-1.1l-1.1-1.1l-1.1-1.1l-1.1-1.1l-1.1-1.1l-1-1.1l-1-1.1l-1-1.2l-1-1.2l-0.9-1.2l-0.9-1.2l-0.9-1.2l-0.9-1.2l-0.8-1.2
	l-0.8-1.2l-0.8-1.2l-0.8-1.2l-0.8-1.2l-0.7-1.3l-0.7-1.3l-0.7-1.3l-0.7-1.3l-0.6-1.3l-0.6-1.3l-0.6-1.3l-0.6-1.3l-0.5-1.3l-0.5-1.3
	l-0.5-1.3l-0.5-1.3l-0.4-1.4l-0.4-1.4l-0.4-1.4l-0.4-1.4L4.7,221l-0.5-2.2l-0.1-0.7l0-0.5l0-0.2l0-0.1l0.1-0.1l0.1-0.1l0,0l0,0
	l0.1,0h0.1l0.1,0l0.2,0.1l0.4,0.3l0.5,0.4l1.8,1.7l1.9,1.7l2,1.7l2,1.7l2.1,1.7l2.2,1.7l2.3,1.7l2.4,1.7l2.4,1.7l2.5,1.7L30,237
	l2.7,1.7l2.8,1.7l2.9,1.7l2.9,1.7l3,1.7l2.4,1.3l2.4,1.3l2.4,1.3l2.4,1.2l2.4,1.2l2.4,1.2l2.4,1.2l2.4,1.1l2.4,1.1l2.4,1.1l2.4,1.1
	l2.5,1l2.5,1l2.5,1l2.5,1l2.5,0.9l2.5,0.9l2.5,0.9l2.5,0.9l2.5,0.8l2.5,0.8l2.5,0.8l2.5,0.7l2.5,0.7l2.5,0.7l2.5,0.7l2.5,0.6
	l2.5,0.6l2.5,0.6l2.6,0.6l2.6,0.5l2.6,0.5l0,0l0,0l3.9,0.7l3.9,0.7l3.9,0.6l3.9,0.5l3.9,0.5l3.9,0.4l3.9,0.4l3.9,0.3l3.9,0.2l4,0.2
	l4,0.1l4,0.1l4,0l4,0l4-0.1l4-0.2l2.6-0.1l2.6-0.2l2.5-0.2l2.5-0.3l2.4-0.3l2.3-0.3l2.3-0.4l2.2-0.4l0.5-0.1l0.4-0.1l0.2-0.1l0.1,0
	l0-0.1l0,0l0,0l-0.1,0l-0.2-0.1l-0.4-0.1l-0.5-0.1l-5.5-0.5l-4.8-0.5l-4.4-0.5l-4.1-0.5l-4-0.5l-3.8-0.5l-3.7-0.5l-3.5-0.5l-3.5-0.6
	l-3.4-0.6l-3.3-0.7l-3.2-0.7l-3.1-0.7l-3.1-0.8l-3-0.8l-2.9-0.8l-4-1.2l-3.9-1.2l-3.8-1.2l-3.7-1.2l-3.6-1.2l-3.6-1.2l-3.5-1.2
	l-3.4-1.3l-3.4-1.3l-3.3-1.3l-3.2-1.3l-3.2-1.4l-3.1-1.4l-3.1-1.4l-3-1.4l-2.9-1.4l-2.1-1l-2.9-1.4l-2.9-1.4l-2.1-1l-1.9-0.9
	l-1.7-0.9l-3.6-2l-3.5-2l-3.4-2.1l-3.3-2.1l-3.2-2.1l-3.2-2.2l-3.1-2.2l-3-2.2l-2.9-2.3l-2.8-2.3l-2.8-2.3l-1.4-1.2l-1.3-1.2
	l-1.3-1.2l-1.3-1.2l-1.3-1.2l-1.2-1.2l-1.2-1.2l-1.2-1.2l-1.2-1.2l-1.2-1.3l-1.1-1.3l-1.1-1.3l-1.1-1.3l-1.1-1.3l-1-1.3l-1-1.3
	l-1-1.3l-1-1.3l-1-1.3l-0.9-1.3l-0.9-1.3l-0.9-1.4l-0.9-1.4l-0.9-1.4l-0.8-1.4l-0.8-1.4l-0.8-1.4l-0.8-1.4L13,178l-0.7-1.4l-0.7-1.4
	l-0.7-1.4l-0.7-1.4L9.5,171l-0.6-1.4l-0.6-1.4l-0.6-1.5l-0.6-1.5l-0.5-1.5l-0.5-1.5l-0.5-1.5l-0.5-1.5l-0.6-2l-0.6-2l-0.5-2.1
	l-0.5-2.1L2.7,149l-0.4-2.1l-0.4-2.1l-0.3-2.1l-0.8-6.1L0,130.5v-0.2l0-0.1l0.1-0.1l0.1-0.1l0.1-0.1l0.2-0.1l0.1-0.1h0.1l0,0l0.1,0
	l0.1,0l0.2,0.1l0.2,0.2l0.2,0.3l1,2l1.1,2l1.1,2l1.1,1.9l1.2,1.9l1.2,1.9l1.2,1.8l1.3,1.8l1.4,2l1.4,1.9l1.5,1.9l1.5,1.9l1.5,1.8
	l1.5,1.8l1.5,1.8l1.6,1.7l1.6,1.7l1.6,1.7l1.6,1.6l1.6,1.6l1.6,1.6l1.7,1.6l1.7,1.5l1.7,1.5l2.2,1.8l2.2,1.8l2.2,1.7l2.2,1.7
	l2.4,1.8l2.5,1.8l2.6,1.8l2.8,1.9l2.9,1.9l3.1,2.1l8.2,5.4l3.9,2.6l0.3,0.2l0.2,0.2l0.1,0.1l0,0.1v0l0,0l0,0l0,0l0,0l-0.1,0l-0.2,0
	l-0.3,0l-0.4-0.1l-14.6-3.3l-0.7-0.2l-0.8-0.3l-0.8-0.4l-1.1-0.5l-1.1-0.5l-0.7-0.3l-0.5-0.2l-0.3-0.1l-0.1,0l-0.1,0l0,0l0,0l0,0
	l0,0l0,0l0,0l0,0.1l0,0.1l0.2,0.3l0.4,0.4l0.5,0.5l2.5,2.2l2.6,2.2l2.6,2.1l2.7,2.1l2.7,2l2.8,2l2.8,1.9l2.9,1.9l2.9,1.8l3,1.8
	l3,1.7l3.1,1.7l3.1,1.6l3.2,1.6l3.2,1.5l3.3,1.4l3.2,1.4l3.2,1.3l3.2,1.3l3.2,1.2l3.2,1.2l3.1,1.2l3.1,1.1l3.1,1.1l3.1,1l3.1,1
	l3,0.9l3,0.9l3,0.9l3,0.8l3,0.8l2.9,0.7l2.9,0.7l3,0.6l3,0.6l3,0.6l3,0.5l3.1,0.5l3.1,0.5l3.1,0.4l3.2,0.4l3.2,0.4l3.2,0.3l3.3,0.3
	l3.3,0.3l3.3,0.2l3.4,0.2l3.4,0.2l1.5,0.1l1.5,0h1.5l1.5,0l0,0l0,0l0.7,0l0.8,0l0.6-0.1l0.2,0l0.1-0.1l0.1-0.1l0-0.1l0,0l0,0l0,0
	l0-0.1l-0.1-0.1l-0.1-0.1l-0.2-0.1l-0.5-0.2l-0.7-0.2l-4.4-1.3l-4.3-1.3l-4.2-1.3l-4.2-1.4l-4.1-1.4l-4-1.4l-4-1.4l-3.9-1.4
	l-5.1-1.9l-4.9-1.9l-4.7-1.9l-4.6-1.8l-4.4-1.8l-4.3-1.8l-4.2-1.8l-4-1.8l-4-1.9l-3.9-1.9l-3.8-1.9l-3.6-1.9l-3.5-1.9l-3.5-1.9
	l-3.3-1.9l-3.2-1.9l-3.1-1.9l-3.1-2l-3.1-2.1l-3.1-2.2l-3.1-2.3l-3.1-2.4l-3.1-2.4l-3.1-2.5l-3-2.6l-3-2.6l-3-2.7l-2.9-2.8l-2.9-2.8
	l-2.8-2.9l-2.8-2.9l-2.7-3l-2.2-2.4l-2.1-2.5l-2.1-2.5l-2-2.5l-1.9-2.5l-1.9-2.6l-1.8-2.6l-1.8-2.6l-1.7-2.6l-1.7-2.7l-1.6-2.7
	l-1.6-2.7l-1.5-2.7l-1.5-2.8l-1.4-2.8l-1.4-2.8l-0.9-2l-0.9-2l-0.9-2l-0.9-2l-0.8-2.1l-0.8-2.1l-0.8-2.1l-0.8-2.1l-0.6-1.7l-0.6-1.7
	l-0.5-1.7l-0.5-1.7l-0.5-1.7L21.8,98l-0.5-1.8l-0.4-1.8l-0.4-1.8L20.1,91l-0.4-1.8l-0.3-1.8L19,85.6l-0.3-1.8L18.5,82l-0.3-1.8
	L18,78.4l-0.2-1.8l-0.2-1.8L17.4,73l-0.1-1.8l-0.1-1.8L17,67.6l-0.1-1.8L16.8,64l0-1.8l0-1.8l0-1.8l0-1.8l0.1-1.8l0.1-1.8l0.1-1.8
	l0.1-1.8l0.1-1.8l0.2-1.7l0.2-1.7l0.2-1.7l0.2-1.7l0.3-1.7l0.3-1.7l0.3-1.7l0.3-1.7l0.4-1.7l0.4-1.7l0.4-1.6l0.4-1.6l0.4-1.6
	l0.5-1.6l0.5-1.6l0.5-1.6l0.5-1.6l0.6-1.6l0.6-1.6l0.6-1.5l0.6-1.5l0.6-1.5l0.6-1.5l0.7-1.5l0.7-1.5l0.7-1.5l0.7-1.4l0.8-1.4
	l0.8-1.4L32,0.3L32,0.1l0.1-0.1l0,0l0.1,0l0.2,0l0.1,0l0.1,0.1l0.1,0.1l0.1,0.1l0.6,2.5L34,5.3l0.6,2.5l0.7,2.4l0.7,2.4l0.7,2.4
	l0.8,2.4l0.8,2.4l0.8,2.3l0.8,2.3l0.9,2.3l0.9,2.3l0.9,2.3l1,2.3l1,2.3l1,2.2l1.1,2.2l1.1,2.2l1.1,2.2l1.2,2.2l1.2,2.2l1.2,2.2
	l1.3,2.2l1.3,2.1l1.3,2.2l1.4,2.1l1.4,2.1l1.4,2.1l1.5,2.1l1.5,2.1l1.6,2.1l1.6,2.1l1.6,2.1l1.6,2.1l1.7,2l1.7,2l1.8,2l1.8,2l1.8,2
	l1.9,2l2.3,2.4l2.3,2.4l2.4,2.4l2.4,2.4l2.4,2.4l2.4,2.4l2.4,2.4l2.5,2.4l2.5,2.3l2.5,2.3l2.5,2.3l2.6,2.3l2.6,2.3l2.6,2.3l2.6,2.2
	l2.6,2.2l2.7,2.2l2.7,2.2l2.7,2.2l2.8,2.2l2.8,2.2l2.8,2.2l2.8,2.2l2.9,2.2l2.9,2.1l2.9,2.1l2.9,2.1l3,2.1l3,2.1l3,2.1l3,2.1
	l3.1,2.1l6.4,4.3l6.1,4.1l5.8,3.8l5.5,3.6l5.2,3.4l5,3.1l4.7,2.9l4.4,2.7l16.7,10.1l16.6,10.1l1.3,0.8l1.3,0.9l1.3,0.9l1.3,0.9
	l1.2,0.9l1.2,1l1.2,1l1.1,1l1.1,1l1.1,1l1.1,1l1,1.1l1,1.1l1,1.1l1,1.1l0.9,1.1l0,0l0,0l0,0l0,0l0,0l0.9,1.1l0.9,1.2l0.8,1.2
	l0.8,1.2l0.8,1.2l0.8,1.2l0.7,1.3l0.7,1.3l0.7,1.3l0.6,1.3l0.6,1.3l0.6,1.4l0.6,1.4l0.5,1.4l0.5,1.4l0.5,1.4l0.7,2.2l0.7,2.3
	l0.7,2.5l0.6,2.6l0.7,2.8l0.6,2.9l0.6,3.1l0.7,3.4l0.5,2.5l0.5,2.5l0.6,2.5l0.6,2.5l0.6,2.5l0.6,2.5l0.7,2.4l0.7,2.4l0.3,1l0.3,1
	l0.4,0.9l0.4,0.9l0.4,0.9l0.4,0.9l0.4,0.8l0.5,0.8l0.5,0.8l0.5,0.8l0.5,0.8l0.6,0.8l0.6,0.7l0.6,0.7l0.6,0.7l0.6,0.7l0,0l0,0l0,0
	l1,1l1,0.9l1.1,0.9l1.2,0.8l1.2,0.8l1.3,0.7l1.3,0.7l1.4,0.6l0,0h0.1l0.1,0l0-0.1l0-0.1l0.1-3.8l0.1-3.8l0.2-3.8l0.3-3.8l0.4-3.8
	l0.4-3.9l0.5-3.8l0.5-3.8l0.3-1.8l0.3-1.8l0.3-1.8l0.4-1.8l0.4-1.7l0.4-1.7l0.4-1.7l0.4-1.6l0.4-1.6l0.5-1.6l0.5-1.6l0.5-1.5
	l0.5-1.5l0.5-1.5l0.6-1.5l0.6-1.4l0.8-1.9l0.9-1.9l1-2l1.1-2.1l1.2-2.1l1.3-2.2l1.4-2.3l1.5-2.3l0.1-0.1l0-0.1l0-0.1l0-0.1l0,0l0,0
	l0-0.1l-0.1-0.1l-0.1,0l-0.1,0l-1.7-0.2l-1.7-0.3l-1.7-0.3l-1.7-0.3l-1.7-0.3l-1.7-0.4l-1.7-0.4l-1.7-0.4l-0.3-0.1l-0.2-0.1
	l-0.1-0.1l-0.1-0.1l0,0l0,0l0,0l0-0.1l0.1-0.2l0.2-0.2l0.2-0.2l5.8-4.1l5.8-4l5.8-4l5.8-3.9l1.1-0.8l1.2-0.8l1.2-0.8l1.3-0.8
	l1.3-0.8l1.4-0.8l1.4-0.8l1.4-0.8l3-1.5l3.2-1.5l3.3-1.5l3.5-1.5l1.5-0.6l1.5-0.6l1.5-0.5l1.6-0.5l1.6-0.5l1.6-0.5l1.6-0.4l1.6-0.4
	l1.6-0.3l1.6-0.3l1.6-0.3l1.6-0.2l1.6-0.2l1.6-0.2l1.6-0.1l1.6-0.1l1.6-0.1l1.6,0h1.6l1.6,0l1.5,0.1l1.5,0.1l1.5,0.1l1.5,0.2
	l1.5,0.2l1.4,0.2l1.4,0.3l1.4,0.3l1.4,0.4l1.4,0.4l1.3,0.4l1.3,0.5l0.8,0.3l0.8,0.3l0.8,0.3l0.7,0.4l0.7,0.4l0.7,0.4l0.6,0.4
	l0.6,0.4l0.6,0.4l0.5,0.4l0.5,0.4l0.5,0.4l0.4,0.4l0.4,0.5l0.4,0.5l0.4,0.5l0.2,0.2l0.2,0.1l0,0l0.1,0l0.1,0l0.3,0l1.3-0.3l1.3-0.2
	l1.3-0.2l1.2-0.1l1.2-0.1l1.2,0l1.2,0l1.2,0.1l1.1,0.1l1.1,0.2l1.1,0.2l1.1,0.3l1,0.3l1,0.4l1,0.4l1,0.4l0,0l0,0l0,0l1,0.5l1,0.6
	l0.9,0.6l0.9,0.7l0.9,0.7l0.9,0.8l0.8,0.8l0.8,0.9l0.8,0.9l0.7,0.9l0.7,1l0.6,1l0.6,1.1l0.5,1.1l0.5,1.1l0.4,1.2l0.4,1.2l0.3,1.2
	l0.3,1.2l0.2,1.3l0.2,1.2l0.1,1.3l0,1.3l0,1.3l-0.1,1.2l-0.1,1.2l-0.2,1.2l-0.2,1.2l-0.3,1.2l-0.3,1.1l-0.4,1.1l-0.4,1.1l-0.5,1.1
	l-0.6,1l-0.6,1l-0.7,1l-0.7,0.9l-0.7,0.8l-0.8,0.8l-0.8,0.8l-0.6,0.5l-0.7,0.5l-0.1,0.1h-0.1l-0.1-0.1l-0.1-0.1l0-0.1l0.1-1l0.1-1.1
	v-1.1l0-1.1l-0.1-1.1l-0.1-1.1l-0.2-1.1l-0.2-1.1l-0.1-0.2l-0.1-0.2l-0.2-0.1l-0.2,0l-0.6-0.1l-0.6,0l-0.6,0l-0.6,0.1l-1.4,0.3
	l-1.4,0.3l-1.4,0.3l-1.4,0.4l-1.4,0.4l-1.4,0.4l-1.4,0.5l-1.3,0.5l-1.3,0.5l-1.3,0.5l-1.2,0.6l-1.2,0.6l-1.2,0.6l-1.1,0.6l-1.1,0.7
	l-1.1,0.7l-1,0.7l-1,0.7l-0.9,0.8l-0.9,0.8l-0.8,0.8l-0.8,0.8l-0.8,0.8l-0.7,0.8l-0.7,0.9l-0.6,0.9l-0.6,0.9l-0.5,0.9l-0.5,0.9
	l-0.4,1l-0.4,1l-0.3,1l-0.3,1.1l-0.3,1.1l-0.2,1.1l-0.1,1.1l-0.1,1.2l0,1.2l0,1.2l0.1,1.2l0.2,1.5l0.2,1.5l0.3,1.6l0.3,1.5l0.4,1.5
	l0.4,1.5l0.5,1.5l0.5,1.5l0.6,1.5l0.6,1.5l0.7,1.5l0.7,1.5l0.8,1.5l0.8,1.5l0.9,1.5l1,1.5l0.8,1.2l0.8,1.1l0.9,1.1l0.8,1l0.9,1
	l0.9,0.9l0.9,0.9l0.9,0.8l1,0.7l1,0.7l1,0.6l1,0.6l1,0.5l1,0.4l1,0.4l1.1,0.3l0.7,0.2l0.7,0.1l0.7,0.1l0.7,0.1l0.7,0.1l0.7,0.1
	l0.7,0l0.7,0l0.7,0l0.7,0l0.7-0.1l0.7-0.1l0.8-0.1l0.8-0.1l0.8-0.2l0.8-0.2l0.6-0.2l0.6-0.2l0.6-0.2l0.6-0.2l0.8-0.3l0.7-0.3
	l0.7-0.4l0.7-0.4l0.7-0.4l0.7-0.5l0.7-0.5l0.6-0.5l0.7-0.5l0.6-0.6l0.6-0.6l0.6-0.6l0.6-0.7l0.6-0.7l0.5-0.7l0.5-0.7l0.5-0.8
	l0.5-0.8l0.5-0.8l0.5-0.8l0.5-0.9l0.4-0.9l0.4-0.9l0.4-0.9l0.4-1l0.4-1l0.3-1l0.3-1l0.3-1l0.3-1l0.2-1l0.2-1l1.4-7.4l1.5-7.2l1.5-7
	l1.5-6.8l0.4-1.8l0.5-1.8l0.5-1.8l0.5-1.8l0.6-1.7l0.6-1.7l0.7-1.7l0.7-1.6l0.7-1.6l0.8-1.6l0.8-1.6l0.8-1.5l0.9-1.5l0.9-1.5l1-1.5
	l1-1.4l0,0l0,0l0,0l1-1.3l1-1.3l1-1.3l1.1-1.2l1.1-1.2l1.1-1.2l1.2-1.2l1.2-1.1l1.2-1.1l1.3-1.1l1.3-1.1l1.3-1l1.4-1l1.4-1l1.4-1
	l1.5-0.9l3.4-2.1l3.7-2.2l4.1-2.4l5.6-3.2l6.1-3.5l4.5-2.6l4-2.4l4-2.4l4-2.4l4-2.4l3.9-2.5l3.9-2.5l3.9-2.5l3.9-2.5l3.9-2.5
	l3.8-2.5l3.8-2.5l3.8-2.5l3.8-2.6l3.8-2.6l3.8-2.6l3.8-2.6l3.4-2.4l3.4-2.4l3.3-2.4l3.3-2.5l0,0l3.7-2.8l3.7-2.9l3.7-2.9l3.6-3
	l3.6-3l3.6-3l3.5-3.1l3.5-3.1l3.5-3.1l3.5-3.2l3.4-3.2l3.4-3.3l3.4-3.3l3.3-3.3l3.3-3.4l3.3-3.4l1.9-2l1.8-2l1.9-2l1.8-2.1l1.8-2.1
	l1.9-2.1l1.8-2.2l1.9-2.2l2-2.4l1.9-2.4l1.9-2.4l1.8-2.5l1.8-2.5l1.7-2.5l1.7-2.5l1.6-2.6l1.6-2.6l1.5-2.6l1.5-2.6l1.5-2.6l1.4-2.7
	l1.4-2.7l1.3-2.7l1.3-2.7l0,0l0,0l0,0l0,0l0,0l0.9-2.1l0.9-2.1l0.9-2.2l0.9-2.2l0.8-2.2l0.8-2.2l0.8-2.2l0.7-2.2l0.7-2.2l0.7-2.2
	l0.7-2.2l0.6-2.3l0.6-2.3l0.6-2.3l0.5-2.3l0.5-2.3l0-0.1l0.1-0.1l0.1-0.1l0.1-0.1l0.1,0l0.1,0l0.1,0l0.1,0l0,0l0.1,0.1l0.4,0.6
	l0.4,0.6l0.4,0.6l0.3,0.6l0.8,1.6l0.8,1.6l0.8,1.6l0.7,1.6l0.7,1.6l0.7,1.6l0.7,1.6l0.6,1.6l0.6,1.7l0.6,1.7l0.6,1.7l0.5,1.7
	l0.5,1.7l0.5,1.7l0.5,1.7l0.4,1.7l0.4,1.7l0.4,1.8l0.4,1.8l0.3,1.8l0.3,1.8l0.3,1.8l0.3,1.8l0.2,1.8l0.2,1.8l0.2,1.8l0.2,1.8
	l0.1,1.8l0.1,1.8l0.1,1.8l0.1,1.9l0,1.9l0,1.8l0,1.9l0,1.9l-0.1,1.9l-0.1,1.9l-0.1,1.9l-0.1,1.9l-0.2,1.9l-0.2,1.9l-0.2,1.9
	l-0.2,1.9l-0.3,1.9l-0.3,1.9l-0.3,1.9l-0.3,1.9l-0.4,1.9l-0.4,1.9l-0.4,1.9l-0.4,1.9l-0.5,1.9l-0.5,1.9l-0.5,1.9l-0.5,1.8l-0.6,1.9
	l-0.6,1.8l-0.6,1.8l-0.6,1.8l-0.7,1.8l-0.7,1.8l-0.7,1.8l-0.7,1.8l-0.7,1.8l-0.9,2.1l-0.9,2.1l-1,2.1l-1,2.1l-1,2.1l-1,2.1l-1.1,2
	l-1.1,2l-1.1,2l-1.2,2l-1.2,2l-1.2,2l-1.2,2l-1.3,2l-1.3,2l-1.3,1.9l-1.4,1.9l-1.4,1.9l-1.4,1.9l-1.4,1.9l-1.5,1.9l-1.5,1.9
	l-1.5,1.8l-1.5,1.8l-1.6,1.8l-1.6,1.8l-1.6,1.8l-1.6,1.8l-1.7,1.8l-1.7,1.7l-1.7,1.7l-1.8,1.7l-1.8,1.7l-1.8,1.7l-1.8,1.7l-1.8,1.6
	l-1.9,1.6l-1.9,1.6l-1.9,1.6l-1.9,1.6l-2,1.6l-2,1.5l-2,1.5l-2,1.5l-2,1.5l-2,1.4l-2.1,1.4l-2.1,1.4l-2.1,1.4l-2.1,1.4l-2.1,1.3
	l-2.2,1.3l-2.2,1.3l-2.2,1.3l-2.2,1.2l-2.2,1.2l-2.2,1.2l-2.2,1.2l-2.2,1.1l-2.3,1.1l-2.3,1.1l-2.3,1.1l-2.3,1l-2.3,1l-3.9,1.7
	l-3.9,1.6l-3.9,1.6l-4,1.6l-4,1.6l-4,1.5l-4.1,1.5l-4.2,1.5l-4.2,1.5l-4.3,1.5l-4.4,1.5l-4.5,1.5l-4.7,1.5l-4.8,1.6l-5.1,1.6
	l-5.4,1.7l-0.3,0.1l-0.3,0.1l0,0l0,0l-0.2,0.1l-0.2,0.2l0,0.1v0.1l0,0.1l0.1,0l0,0l0,0l0.1,0l3.3,0l3.3,0l3.3,0l3.4-0.1l3.4-0.1
	l3.4-0.2l3.4-0.3l3.4-0.3l3.4-0.4l3.4-0.4l3.4-0.5l3.4-0.5l3.4-0.6l3.4-0.6l3.4-0.7l3.4-0.7l3.4-0.8l3.5-0.8l3.4-0.9l3.5-0.9l3.5-1
	l3.5-1l3.4-1.1l3.5-1.1l3.5-1.2l3.5-1.2l3.4-1.3l3.5-1.3l3.4-1.4l3.5-1.4l3.4-1.5l3.4-1.5l2-0.9l2-0.9l2-1l2-1l1.9-1l1.9-1l1.9-1
	l1.9-1l1.8-1l1.8-1.1l1.8-1.1l1.8-1.1l1.8-1.1l1.7-1.1l1.7-1.1l1.7-1.2l1.8-1.3l1.9-1.4l1.9-1.5l2-1.6l2-1.7l2.1-1.8l2.2-2l2.5-2.3
	l0.3-0.2l0.2-0.2l0.1-0.1l0,0l0,0l0,0l0,0l0,0l0,0l-0.2,0l-0.2,0.1l-0.3,0.1l-2,0.8l-2,0.7l-2,0.6l-2.1,0.6l-2.1,0.5l-2.2,0.4
	l-2.2,0.4l-2.3,0.3l-0.3,0l-0.3,0.1l-0.3,0.1l-0.3,0.1l-0.3,0.1l-0.3,0.1l-0.3,0.1l-0.3,0l0,0l0,0l-0.3,0l-0.3,0l-0.2,0l-0.2-0.1
	l-0.1-0.1l0-0.1l0,0l0,0l0,0l0,0l0-0.1l0.1-0.1l0.1-0.1l0.2-0.1l4.9-3l4.9-3l4.8-3l4.7-3l2-1.3l1.9-1.3l1.9-1.4l1.9-1.4l1.9-1.4
	l1.8-1.4l1.8-1.4l1.8-1.5l1.8-1.5l1.7-1.5l1.7-1.5l1.7-1.6l1.7-1.6l1.6-1.6l1.6-1.6l1.6-1.7l0,0l0,0l0,0l0,0l0,0l0,0l0,0l1.2-1.3
	l1.2-1.3l1.2-1.4l1.2-1.4l1.2-1.4l1.2-1.4l1.1-1.4l1.1-1.4l1.1-1.5l1.1-1.5l1.1-1.5l1.1-1.5l1.1-1.5l1-1.5l1-1.5l1-1.5l0.8-1.3
	l0.8-1.3l0.8-1.3l0.7-1.3l0.7-1.3l0.7-1.4l0.7-1.4l0.7-1.4l0.1-0.1l0.1-0.1l0.1-0.1l0.1,0l0.1,0l0.1,0l0.1,0.1l0.1,0.1l0.1,0.1
	l0.2,0.3l0.1,0.3l0,0l0,0l0.1,0.3l0,0.3l-0.2,2.7l-0.2,2.6l-0.3,2.6l-0.3,2.6l-0.4,2.6l-0.5,2.6l-0.5,2.6l-0.6,2.5l-0.6,2.5
	l-0.7,2.5l-0.7,2.5l-0.8,2.5l-0.9,2.4l-0.9,2.4l-1,2.4l-1,2.4l-0.6,1.4l-0.7,1.4l-0.7,1.4l-0.7,1.4l-0.7,1.3l-0.7,1.3l-0.7,1.3
	l-0.8,1.3l-0.8,1.3l-0.8,1.3l-0.8,1.3L712,187l-0.8,1.3l-0.9,1.2l-0.9,1.2l-0.9,1.2l-1.5,2l-1.6,2l-1.6,2l-1.7,2l-1.7,1.9l-1.7,1.9
	l-1.8,1.9l-1.8,1.9l-1.8,1.9l-1.9,1.8l-1.9,1.8l-2,1.8l-2,1.8l-2,1.7l-2.1,1.7l-2.1,1.7l-2.2,1.7l-2.2,1.6l-2.2,1.6l-2.3,1.6
	l-2.3,1.6l-2.3,1.5l-2.4,1.5l-2.4,1.5l-2.5,1.5l-2.5,1.5l-2.5,1.4l-2.6,1.4l-2.6,1.4l-2.7,1.4l-2.7,1.3l-2.8,1.3l-2.5,1.2l-2.5,1.2
	l-2.5,1.1l-2.5,1.1l-2.5,1.1l-2.5,1.1l-2.5,1l-2.5,1l-2.5,1l-2.5,1l-2.5,0.9l-2.5,0.9l-2.5,0.9l-2.5,0.9l-2.5,0.9l-2.5,0.8l-2.5,0.8
	l-2.5,0.8l-2.5,0.8l-2.5,0.7l-2.4,0.7l-2.4,0.7l-2.4,0.7l-2.4,0.6l-2.4,0.6l-2.4,0.6l-2.4,0.5l-2.4,0.5l-2.4,0.5l-2.4,0.5l-2.3,0.4
	l-2.3,0.4l-3.7,0.6l-4,0.6l-4.3,0.6L545,274l-4.9,0.6l-5.2,0.6l-5.5,0.6l-5.7,0.5l-0.1,0l-0.1,0l0,0l-0.1,0.1l0,0.1v0.1l0,0.1l0,0
	l0.1,0.1l0.1,0.1l0,0l2.5,0.4l2.5,0.4l2.5,0.3l2.6,0.3l2.6,0.3l2.7,0.2l2.7,0.2l2.8,0.2l2.8,0.1l2.9,0.1l3,0.1l3.1,0l3.2,0l3.4-0.1
	l3.6-0.1l3.8-0.1l2.2-0.1l2.2-0.1l2.2-0.1l2.2-0.1l2.2-0.2l2.2-0.2l2.2-0.2l2.2-0.2l2.2-0.2l2.2-0.3l2.2-0.3l2.2-0.3l4.4-0.7
	l4.4-0.8l4.4-0.8l4.4-0.9l4.4-1l4.4-1.1l4.4-1.2l4.3-1.2l4.3-1.3l4.3-1.4l4.3-1.5l4.3-1.6l4.3-1.6l4.2-1.7l4.2-1.8l4.2-1.9l4.1-1.9
	l4.1-2l4.1-2.1l4-2.1l4-2.2l3.9-2.3l3.9-2.3l3.9-2.4l3.8-2.4l3.8-2.5l1.7-1.2l1.7-1.2l0,0l0,0l0,0l2.2-1.6l2.1-1.6l2.1-1.7l2.1-1.7
	l2.1-1.7l2-1.8l2-1.8l2-1.8l0.1-0.1l0.1-0.1l0.1,0l0.1,0l0,0l0,0l0,0l0.1,0l0.1,0l0.2,0.1l0.1,0.1l0.1,0.1l0,0.1l0,0.2l-0.6,2.3
	L725,223l-0.7,2.3l-0.7,2.2l-0.8,2.2l-0.8,2.2l-0.9,2.2l-1,2.1l-0.8,1.6l-0.8,1.6l-0.8,1.6l-0.9,1.5l-0.9,1.5l-0.9,1.5l-1,1.5
	l-1,1.5l-1,1.5l-1,1.4l-1.1,1.4l-1.1,1.4l-1.2,1.4l-1.2,1.4l-1.2,1.4l-1.2,1.4l-1.3,1.3l-1.3,1.3l-1.3,1.3l-1.4,1.3l-1.4,1.3
	l-1.4,1.2l-1.4,1.2L693,270l-1.5,1.2l-1.5,1.2l-1.6,1.2l-1.6,1.1l-1.6,1.1l-1.7,1.1l-1.7,1.1l-1.7,1l-2.6,1.5L675,282l-2.6,1.4
	l-2.6,1.3l-2.6,1.3l-2.7,1.2l-2.7,1.2l-2.7,1.1l0,0l0,0l0,0l0,0l-1.7,0.7l-1.7,0.7l-1.7,0.6l-1.7,0.6l-1.7,0.6l-1.8,0.6l-1.8,0.5
	l-1.8,0.5l-3.1,0.9L639,296l-3.1,0.8l-3.1,0.8l-3.1,0.7l-3.1,0.6l-3.1,0.6l-3.1,0.6l-3.1,0.5l-3.1,0.5l-3.1,0.4l-3.1,0.4l-3.1,0.3
	l-3.1,0.3l-3.1,0.2l-3.1,0.2l-4.3,0.2l-4.4,0.1l-4.4,0.1l-4.5,0h-4.6l-4.6,0l-4.7-0.1l-4.8-0.1l-6.4-0.3l-6.4-0.3l-6.3-0.3l-6.2-0.4
	l-6.2-0.4l-6.1-0.4l-6-0.4l-5.9-0.5l-0.8,0l-0.6,0l-0.2,0l-0.2,0l-0.1,0.1l0,0.1l0,0l0,0l0,0l0,0v0.1l0,0.1l0.1,0.1l0.2,0.1l0.5,0.3
	l0.7,0.4l0.4,0.2l2,1l2.1,1l2.1,0.9l2.2,0.9l2.2,0.9l2.2,0.8l2.3,0.8l2.3,0.7l2.4,0.7l2.4,0.7l2.5,0.6l2.6,0.6l2.7,0.6l2.8,0.5
	l2.9,0.5l3.1,0.5l2.8,0.4l2.8,0.4l2.8,0.4l2.8,0.4l2.8,0.3l2.8,0.3l2.8,0.3l2.8,0.2l2.8,0.2l2.8,0.2l2.8,0.2l2.8,0.2l2.8,0.1
	l2.8,0.1l2.8,0.1l2.8,0.1l0,0l0,0l0,0l0,0l0,0l2.7,0h2.7l2.7,0l2.7,0l2.7-0.1l2.7-0.1l2.7-0.1l2.7-0.1l2.7-0.2l2.7-0.2l2.7-0.2
	l2.7-0.2l2.7-0.3l2.7-0.3l2.7-0.3l2.7-0.3l2.1-0.3l2-0.3l2-0.3l2-0.3l2-0.4l2-0.4l2-0.4l2-0.4l2-0.4l2-0.5l2-0.5l2-0.5l2-0.5l2-0.6
	l2-0.6l2-0.6l0,0l0,0l1.9-0.6l1.9-0.6l1.9-0.6l1.9-0.7l1.9-0.7l1.9-0.7l1.9-0.7l1.8-0.8l1.1-0.5l1.1-0.5l1.1-0.5l1.1-0.5l1.1-0.6
	l1.1-0.6l1.1-0.6l1.1-0.6l0.1,0l0.1,0l0.1,0l0.1,0l0.1,0.1l0.1,0.1l0.1,0.1l0,0.1l0,0.2l-0.1,0.4l-0.2,0.4l0,0l-0.1,0.2l-0.1,0.2
	l-1.9,1.9l-1.9,1.8l-2,1.8l-2,1.8l-2,1.7l-2.1,1.7l-2.1,1.6l-2.2,1.6l-2.2,1.5l-2.3,1.5l-2.3,1.4l-2.4,1.4l-2.4,1.3l-2.4,1.3
	l-2.5,1.2l-2.5,1.2l-2.5,1.1l-2.6,1.1l-2.6,1.1l-2.6,1l-2.7,0.9l-2.7,0.9l-2.7,0.8l-2.8,0.8l-2.8,0.7l-2.8,0.7l-2.8,0.6l-2.8,0.6
	l-2.9,0.5l-2.9,0.5l-2.9,0.4l-2.9,0.3l-2.8,0.3l-2.8,0.3l-2.8,0.2l-2.8,0.2l-2.8,0.2l-2.8,0.1l-2.8,0.1l-2.8,0.1l-2.8,0.1l-2.9,0
	l-2.9,0l-2.9,0l-2.8-0.1l-2.9-0.1l-2.9-0.1l-2.9-0.1l-2.9-0.2l-2.9-0.2l-2.9-0.2l-2.9-0.2l-2.9-0.3l-2.9-0.3l-2.9-0.3l-2.9-0.4
	l-2.9-0.4l-2.9-0.4l-2.9-0.5l-2.9-0.5l-2.9-0.5l-2.9-0.5l-2.9-0.6l-2.9-0.6l-2.8-0.6l-2.8-0.7l-2.8-0.7l-2.8-0.8l-2.8-0.8l-2.8-0.9
	L502,326l-2.8-1l-0.2,0l-0.2,0h-0.2l-0.2,0l-0.2,0.1l-0.2,0.1l-0.2,0.1l-0.1,0.1l-1.3,1.3l-1.3,1.2l-1.4,1.2l-1.4,1.2l-1.5,1.1
	l-1.5,1.1l-1.5,1.1l-1.6,1l-0.1,0.1l-0.1,0.1l0,0.1l0,0.1v0.1l0,0.1l0,0.1l0.1,0.1l0.1,0.1l3.4,1.2l3.4,1.1l3.4,1.1l3.4,1.1l3.4,1
	l3.4,1l3.4,1l3.5,0.9l3.5,0.9l3.5,0.8l3.5,0.8l3.5,0.8l3.5,0.7l3.5,0.7l3.6,0.7l3.6,0.6l5.4,0.9l5.4,0.8l2.7,0.3l2.6,0.3l2.6,0.3
	l2.6,0.3l2.6,0.3l2.6,0.2l2.6,0.2l2.5,0.2l2.5,0.2l2.5,0.2l2.5,0.1l2.5,0.1l2.5,0.1l2.5,0.1l2.5,0l2.5,0h2.4l2.4,0l2.4,0l2.4-0.1
	l2.4-0.1l2.4-0.1l2.4-0.1l2.4-0.1l2.4-0.2l2.4-0.2l2.4-0.2l2.4-0.2l4.7-0.5l4.6-0.5l4.6-0.6l4.5-0.6l4.4-0.6l4.4-0.7l4.3-0.7
	l4.2-0.7l0.1,0l0.1,0l0.1,0l0.1,0.1l0.1,0.1l0.1,0.1l0,0.1l0,0.1l0,0l0,0.1l-0.1,0.2l-0.1,0.2l-0.1,0.1l-0.1,0.1l-5.4,3.6l-5.5,3.7
	l-1.7,1.1l-1.7,1.1l-1.8,1l-1.8,1l-1.8,1l-1.8,1l-1.9,0.9l-1.9,0.9l-1.9,0.9l-1.9,0.8l-1.9,0.8l-2,0.8l-2,0.7l-2,0.7l-2,0.7
	l-2.1,0.7l-2.1,0.6l-2.1,0.6l-2.1,0.5l-2.2,0.5l-2.2,0.5l-2.2,0.5l-2.2,0.4l-2.2,0.4l-2.2,0.4l-2.3,0.3l-2.3,0.3l-2.3,0.3l-2.3,0.2
	L586,376l-2.3,0.2l-2.3,0.1l-2.4,0.1l-2.3,0.1l-2.3,0l-2.3,0l-2.3,0l-2.3,0l-2.3-0.1l-2.3-0.1l-2.3-0.1l-2.3-0.1l-2.3-0.2l-2.3-0.2
	l-2.2-0.2l-2.2-0.2l-2.2-0.3l-2.2-0.3l-2.7-0.4l-2.7-0.4l-2.7-0.5l-2.6-0.5l-2.6-0.5l-2.6-0.6l-2.6-0.6l-2.6-0.7l-3.1-0.8l-3-0.8
	l-2.9-0.9L512,367l-2.6-1l-2.5-1l-2.4-1l-1.2-0.5l-1.1-0.6l-0.2-0.1h-0.1l0,0l0,0l0,0l0,0l0,0l0,0.1l0.1,0.2l1.1,1.6l1.1,1.6
	l1.2,1.5l1.2,1.5l1.2,1.5l1.3,1.5l1.3,1.4l1.4,1.4l1.4,1.4l1.4,1.4l1.5,1.3l1.5,1.3l1.5,1.2l1.5,1.2l1.6,1.2l1.6,1.2l1.6,1.1
	l1.7,1.1l1.7,1l1.7,1l1.7,1l1.8,0.9l1.8,0.9l1.8,0.8l1.8,0.8l1.8,0.8l1.8,0.7l1.9,0.7l1.9,0.6l1.9,0.6l1.9,0.5l1.9,0.5l3.9,0.9
	l3.8,0.8l3.8,0.8l3.8,0.7l3.7,0.6l3.7,0.5l3.6,0.4l3.6,0.3l0.5,0.1l0.5,0.1l0.4,0.1l0.4,0.2l0,0l0.2,0.1l0.1,0.1l0.1,0.1l0,0.2
	l-0.1,0.1l-0.1,0.1l-4.2,1.5l-3.7,1.2l-1.7,0.6l-1.7,0.5l-1.6,0.5l-1.6,0.5l-1.6,0.4l-1.6,0.4l-1.5,0.4l-1.5,0.3l-1.5,0.3l-1.5,0.3
	l-1.5,0.2l-1.4,0.2l-2.6,0.3l-2.5,0.3l-2.5,0.2l-2.5,0.2l-2.5,0.1l-2.5,0.1l-2.5,0h-2.5l-2.5,0l-2.5-0.1l-2.5-0.1l-2.5-0.2l-2.5-0.2
	l-2.5-0.3l-2.5-0.3l-2.5-0.4l0,0l0,0l0,0l-1.6-0.3l-1.6-0.3l-1.6-0.3l-1.6-0.3l-1.6-0.3l-1.6-0.4l-1.6-0.4l-1.6-0.4l-1.6-0.4
	l-1.6-0.5l-1.6-0.5l-1.6-0.5l-1.6-0.5l-1.6-0.5l-1.5-0.5l-1.6-0.6l-1.6-0.6l-1.7-0.7l-3.4-1.4l-3.4-1.5l-3.5-1.6l-3.6-1.8l-3.7-1.9
	l-3.8-2l-3.8-2.1l-0.2-0.1l-0.1,0l-0.1,0l-0.1,0l0,0l0,0l0,0.1l0,0.1l0,0.1l0,0.2l0.7,1.9l0.8,1.9l0.8,1.9l0.9,1.8l0.9,1.8l1,1.8
	l1,1.7l1.1,1.7l1,1.4l1,1.4l1.1,1.4l1.1,1.3l1.2,1.3l1.2,1.3l1.2,1.3l1.3,1.2l1.3,1.2l1.4,1.2l1.4,1.1l1.4,1.1l1.5,1.1l1.5,1l1.5,1
	l1.6,0.9l1.6,0.9l1.6,0.9l1.7,0.8l1.7,0.8l1.7,0.8l1.8,0.7l1.8,0.7l1.8,0.6l1.8,0.6l1.9,0.6l1.9,0.5l1.9,0.5l1.9,0.5l1.9,0.4l2,0.4
	l2,0.3l0.4,0.1l0.3,0.1l0.3,0.2l0.1,0.1l0.1,0.1l0,0.1l0,0.1l0,0.1l0,0.1l-0.1,0.1l-0.1,0.1l0,0l-0.1,0.1l-1.3,0.3l-1.5,0.4l-3.8,1
	l-3.6,1l-2.6,0.7l-1.2,0.3l-1.2,0.2l-1.1,0.2l-1.1,0.2l-1.4,0.2l-1.3,0.2l-1.4,0.2l-1.3,0.1l-1.4,0.1l-1.4,0.1l-1.3,0.1l-1.3,0
	l-1.4,0l-1.4,0l-1.4,0l-1.3,0l-1.3-0.1l-1.4-0.1l-1.3-0.1l-1.3-0.1l-1.5-0.2l-1.5-0.2l-1.5-0.2l-1.5-0.2l-1.5-0.2l-1.5-0.3l-1.5-0.3
	l-1.5-0.3l-1.5-0.3l-1.5-0.4l-1.4-0.4l-1.5-0.4l-1.5-0.5l-1.4-0.5l-1.4-0.5l-1.4-0.5l-1.4-0.5l-1.4-0.6l-1.4-0.6L453,434l-1.4-0.6
	l-1.4-0.7l-1.4-0.7l-1.4-0.7l-1.4-0.7l-1.4-0.8l-1.3-0.8l-1.3-0.8l-1.3-0.8l-1.3-0.9l-1.3-0.9l-1.3-0.9l-0.1-0.1l-0.1,0l-0.1,0
	l-0.1,0l0,0l0,0l0,0l-0.1,0l-0.1,0.1l-0.1,0.1l0,0.2l-0.3,1.4l-0.3,1.4l-0.3,1.4l-0.2,1.4l-0.2,1.4l-0.2,1.5l-0.2,1.4l-0.2,1.4
	l-0.1,1.5l-0.1,1.5l-0.1,1.4l0,1.5l0,1.5l0,1.5l0,1.5l0,1.4l0.1,1.7l0.1,1.6l0.1,1.6l0.2,1.6l0.2,1.6l0.2,1.6l0.2,1.6l0.3,1.6
	l0.3,1.6l0.3,1.6l0.4,1.6l0.4,1.6l0.4,1.6l0.5,1.6l0.5,1.6l0.5,1.6l0.5,1.6l0.6,1.5l0.6,1.5l0.6,1.5l0.7,1.5l0.7,1.5l0.7,1.5
	l0.7,1.5l0.8,1.5l0.8,1.5l0.8,1.4l0.8,1.4l0.9,1.4l0.9,1.4l0.9,1.4l0.9,1.4l0.9,1.3l0.9,1.3l1,1.3l1,1.2l1,1.2l1,1.2l1,1.2l1,1.2
	l1,1.2l1.1,1.1l1.1,1.1l1.1,1.1l1.1,1.1l1.1,1.1l1.1,1.1l1.1,1l1.1,1l1.2,1l1.2,1l1.2,1l1.2,0.9l1.2,0.9l1.2,0.9l1.2,0.9l1.2,0.9
	l1.2,0.9l1.3,0.8l1.3,0.8l1.3,0.8l1.3,0.8l1.3,0.8l1.3,0.8l2.4,1.3l2.5,1.2l2.5,1.2l2.5,1.1l2.6,1.1l2.6,1l2.6,0.9l2.7,0.8l2.7,0.8
	l2.7,0.7l2.7,0.6l2.8,0.6l2.8,0.5l2.8,0.4l2.8,0.4l2.8,0.3l0.2,0l0.2,0.1l0,0l0.2,0.1l0.2,0.1l0,0.1l0,0.1l0,0l0,0l0,0l0,0.1l0,0.1
	l-0.1,0.2l-1.9,1.8l-1.8,1.6l-1.7,1.5l-1.7,1.4l-1.6,1.3l-1.6,1.2l-1.6,1.1l-1.5,1l-1.5,1l-1.6,0.9l-1.5,0.8l-1.5,0.7l-1.6,0.6
	l-1.6,0.6l-1.6,0.5l-1.6,0.4l-1.7,0.4l-1.7,0.3l-1.7,0.2l-1.7,0.2l-1.8,0.1l-1.8,0l-1.8-0.1l-1.8-0.1l-1-0.1l-1-0.1l-1-0.2l-1-0.2
	l-1-0.2l-1-0.2l-1-0.3l-1-0.3l-1.1-0.3l-1.1-0.3l-1.1-0.4l-1.1-0.4l-1.1-0.4l-1.1-0.4l-1.1-0.5l-1.1-0.5l-1.1-0.5l-1.1-0.6l-1.1-0.6
	l-1.1-0.6l-1.1-0.6l-1.1-0.6l-1.1-0.7l-1.1-0.7l-1.1-0.7l-1-0.7l-1-0.7l-1-0.7l-1-0.7l-1-0.8l-1-0.8l-0.9-0.8l-2-1.7l-2-1.7
	l-1.9-1.7l-1.9-1.8l-1.9-1.8l-1.8-1.8l-1.8-1.8l-1.8-1.9l-1.7-1.9l-1.7-1.9l-1.7-1.9l-1.6-2l-1.6-2l-1.6-2l-1.5-2l-1.5-2l0,0l0,0
	l0,0l0,0l-1.8-2.6l-1.8-2.6l-1.7-2.6l-1.7-2.7l-0.4-0.6l-0.3-0.4l-0.2-0.2l-0.1,0l-0.1,0l0,0l0,0l0,0l0,0l0,0.1l0,0.3l0.1,0.5
	l0.2,0.7l0.7,2.2l0.7,2.1l0.7,2.1l0.8,2.1l0.8,2.1l0.8,2.1l0.8,2.1l0.8,2.1l1.2,2.8l1.2,2.7l1.3,2.7l1.4,2.7l1.5,2.6l1.5,2.6
	l1.6,2.5l1.6,2.5l1.7,2.4l1.8,2.4l1.8,2.3l0.9,1.1l0.9,1.1l0.9,1.1l1,1.1l1,1l1,1l1,1l1,1l1,1l1,1l1,0.9l1,0.9l1,0.9l1,0.9l1.1,0.9
	l1.1,0.8l1.1,0.8l1.1,0.8l1.1,0.8l1.1,0.8l1.1,0.7l1.1,0.7l1.1,0.7l1.1,0.7l1.1,0.7l1.1,0.6l1.1,0.6l1.2,0.6l1.2,0.6l1.2,0.6
	l1.2,0.5l1.2,0.5l1.2,0.5l1.2,0.5l1.2,0.4l1.2,0.4l1.2,0.4l1.2,0.4l1.2,0.3l1.2,0.3l1.2,0.3l1.2,0.3l0.3,0.1l0.2,0.1l0.2,0.1l0,0.1
	l0,0.1l0,0l0,0l0,0v0.1l0,0.1l-0.1,0.2l-0.2,0.2l-0.3,0.2l-2.8,1.5l-3.4,1.8l-2.5,1.3l-1.2,0.6l-1.1,0.5l-1.1,0.5l-1.1,0.5l-1.1,0.4
	l-1.1,0.4l-1,0.4l-1,0.3l-1,0.3l-1,0.3l-1,0.2l-1,0.2l-0.6,0.1l-0.6,0.1l-0.6,0.1l-0.6,0l-1.1,0l-1.1-0.1l-1.1-0.1l-1.1-0.2
	l-1.1-0.3l-1.1-0.3l-1.1-0.4l-1.1-0.5l-1.1-0.5l-1.1-0.6l-1.1-0.7l-1.1-0.8l-1.2-0.8l-1.2-0.9l-1.2-1l-1.2-1.1l-1.6-1.4l-1.5-1.5
	l-1.5-1.5l-1.5-1.5l-1.4-1.5l-1.4-1.5l-1.3-1.6l-1.3-1.6l-1.8-2.3l-1.8-2.3l-1.7-2.3l-1.7-2.3l-1.7-2.3l-1.6-2.4l-1.6-2.4l-1.5-2.4
	l-1.5-2.4l-1.5-2.4l-1.4-2.4l-1.4-2.5l-1.3-2.5l-1.3-2.5l-1.3-2.5l-1.2-2.5l0-0.1l-0.1,0l0,0l-0.1,0l-0.1,0h0l-0.1,0v0.1l2,6.7
	l2,6.6l2,6.4l2.1,6.2l0.6,1.8l0.7,1.8l0.7,1.8l0.7,1.8l0.7,1.8l0.7,1.8l0.7,1.7l0.8,1.7l0.8,1.7l0.8,1.7l0.8,1.7l0.8,1.7l0.8,1.6
	l0.8,1.6l0.9,1.6l0.9,1.6l0.9,1.6l0.9,1.6l0.9,1.5l1,1.5l1,1.5l1,1.5l1,1.5l1,1.5l1,1.4l1.1,1.4l1.1,1.4l1.1,1.4l1.1,1.4l1.1,1.4
	l1.1,1.3l1.2,1.3l0.1,0.2l0,0.1v0.1l0,0l0,0l0,0l0,0.1l-0.1,0.1l-0.1,0.1l-0.1,0.1l-2.8,0.9l-2.7,0.9l-2.6,0.8l-2.5,0.7l-2.4,0.7
	l-2.4,0.6l-2.3,0.5l-2.3,0.5l-2.2,0.4l-2.2,0.4l-2.2,0.3l-2.2,0.3l-2.2,0.2l-2.2,0.1l-2.2,0.1l-2.2,0h-1.4l-0.2,0l-0.2-0.1l-0.2-0.2
	l-0.1-0.2l-1.4-4.8l-1.4-4.9l-1.4-5.1l-1.4-5.2l-1.4-5.3l-1.4-5.5l-1.4-5.6l-1.4-5.7l-3.4-14l-3.2-13l-3-11.9l-2.8-10.9l-0.7-2.6
	l-0.5-1.9l-0.2-0.6l-0.2-0.5l-0.1-0.3l0-0.1l0,0l0,0l0,0l0,0l0,0l0,0l0,0.1l0,0.3l0,0.5l0.1,0.7l0.3,1.9L384.7,525.5z M75.6,139.8
	l-3.1-2.4l-3.2-2.6L66,132l-3.4-2.9l-0.9-0.8l-0.9-0.8l-0.8-0.9l-0.8-0.9l-0.8-1l-0.8-1l-0.8-1l-0.7-1l0,0h0l-0.1,0l0,0.1l0,0.1
	l1,1.7l1,1.7l1.1,1.7l1.1,1.7l1.1,1.7l1.1,1.7l1.2,1.7l1.2,1.7l1.2,1.6l1.2,1.6l1.2,1.6l1.3,1.6l1.3,1.6l1.3,1.6l1.3,1.5l1.3,1.5
	l1.4,1.5l1.4,1.5l1.4,1.5l1.4,1.4l1.4,1.4l1.4,1.4l1.4,1.4l1.5,1.3l1.5,1.3l1.5,1.3l1.5,1.2l1.5,1.2l1.5,1.2l1.5,1.2l1.5,1.1
	l1.5,1.1l3.1,2.1l3,2.1l3,2l3,1.9l3,1.9l3,1.8l3,1.8l3,1.7l3,1.7l3,1.6l2.9,1.6l3,1.5l2.9,1.5l3,1.4l3,1.4l2.9,1.3l3,1.3l2.9,1.2
	l3,1.2l3,1.1l3,1.1l3,1l3,1l3,0.9l3,0.9l3,0.9l3,0.8l3,0.8l3,0.7l3,0.7l3,0.6l3,0.6l0.4,0.1l0.3,0l0.2,0l0.1,0l0,0l0,0l0-0.1l0,0
	l-0.1-0.1l-0.3-0.2l-0.4-0.2l-3.9-2.2l-3.9-2.2l-3.9-2.2l-3.9-2.3l-3.9-2.3l-3.9-2.3l-3.8-2.3l-3.8-2.4l-3.8-2.4l-3.8-2.4l-3.8-2.4
	l-3.8-2.5l-3.8-2.5l-3.8-2.5l-3.8-2.5l-3.8-2.6l-2.2-1.5l-2.4-1.7l-2.6-1.9l-3.6-2.7l-4.5-3.4l-2.7-2l-2.7-2.1l-2.7-2.2l-2.6-2.2
	l-2.6-2.3l-2.6-2.4l-2.6-2.5l-2.6-2.6l-2.6-2.6l-2.6-2.7l-2.6-2.8l-2.5-2.9l-2.5-2.9l-2.5-3l-2.5-3.1l-2.5-3.2l-0.8-1l-0.7-1l-0.7-1
	l-0.7-1.1l-0.7-1.1l-0.7-1.1l-0.7-1.2l-0.7-1.2l-0.2-0.3l-0.2-0.2l-0.1-0.1l-0.1,0h0l0,0l0,0l0,0l0,0l0,0l0,0.2l0,0.2l0,0.3l0.1,1.7
	l0.2,1.7l0.2,1.7l0.3,1.7l0.3,1.7l0.3,1.7l0.4,1.7l0.4,1.7l0.4,1.7l0.5,1.7l0.5,1.7l0.6,1.7l0.6,1.7l0.6,1.7l0.7,1.7l0.7,1.7
	l0.1,0.3l0.1,0.2l0,0.2l0,0.1l0,0l0,0l0,0l-0.1,0l-0.1,0l-0.2-0.1L75.6,139.8z M654.5,139.5l0.9-1.7l0.7-1.4l0.5-1.1l0.4-1l0.1-0.5
	l0.1-0.5l0.6-2.5l0.6-2.5l0.5-2.5l0.5-2.6l0,0l0,0l0,0l0.4-2.6l0.4-2.6l0.3-2.6l0.3-2.7l0-0.3l0-0.2l0-0.1l-0.1-0.1l0,0l0,0l-0.1,0
	l-0.1,0.1l-0.1,0.1l-0.2,0.2l-0.8,1.2l-1,1.6l-1.5,2.4l-0.6,0.9l-0.6,0.8l-2.2,2.9l-2.2,2.8l-2.2,2.8l-2.3,2.8l-2.3,2.7l-2.3,2.6
	l-2.4,2.6l-2.4,2.5l-2.4,2.5l-2.5,2.5l-2.5,2.4l-2.6,2.4l-2.6,2.3l-2.6,2.3l-2.7,2.2l-2.7,2.2l-4.1,3.1l-4.1,3.1l-4.1,3l-4.1,2.9
	l-4.1,2.8l-4.1,2.8l-4.2,2.7l-4.2,2.6l-6,3.7l-6,3.7l-6.1,3.6l-6.1,3.6l-6.1,3.5l-6.1,3.4l-6.1,3.4l-6.1,3.3l-0.3,0.2l-0.2,0.1
	l-0.1,0.1l0,0.1v0l0,0l0,0l0,0l0.2,0l0.3,0l0.4-0.1l2.4-0.4l2.4-0.4l2.3-0.4l2.3-0.4l2.2-0.5l2.2-0.5l2.2-0.5l2.1-0.5l2.1-0.5l2-0.5
	l2-0.5l1.9-0.6l1.9-0.6l1.8-0.6l1.8-0.6l1.8-0.6l4-1.5l4-1.6l3.9-1.6l3.9-1.7l3.9-1.7l3.8-1.8l3.8-1.8l3.7-1.9l3.7-2l3.7-2l3.6-2.1
	l3.6-2.1l3.5-2.2l3.5-2.2l3.4-2.3l3.4-2.4l0,0l0,0l0,0l2-1.4l1.9-1.4l1.9-1.4l1.9-1.5l1.8-1.4l1.7-1.4l1.7-1.4l1.7-1.4l1.7-1.5
	l1.6-1.5l1.6-1.5l1.6-1.5l1.6-1.5l1.5-1.5l1.5-1.6l1.5-1.6l1.4-1.6l1.4-1.6l1.4-1.7l1.4-1.7l1.8-2.3l1.8-2.4l1.7-2.4l1.7-2.4
	l1.6-2.5l1.6-2.5l1.5-2.6l1.5-2.6l0.3-0.6l0.2-0.4l0.1-0.3l0-0.1l0,0l0,0l0,0l0,0h0l-0.1,0l-0.2,0.2l-0.3,0.3l-0.4,0.5l-1.6,1.9
	l-1.6,1.7l-1.5,1.6l-1.5,1.5l-1.5,1.4l-1.5,1.4l-1.5,1.3l-1.5,1.2l-1.7,1.3l-1.7,1.3l-1.6,1.4l-1.6,1.4l-0.3,0.3l-0.1,0.1l-0.1,0
	l0,0l0,0l0-0.1l0-0.1L654.5,139.5z M360.3,274.1l0.5-2.6l0.6-2.6l0.5-2l0.5-2l0.2-0.8l0.2-0.8l0.3-0.8l0.3-0.8l0.4-0.8l0.4-0.8
	l0.4-0.8l0.5-0.8l0.5-0.8l0.5-0.8l0.5-0.8l0.6-0.8l0.6-0.8l0.7-0.8l0.7-0.9l0.7-0.9l0.9-1.1l0.9-1l1-1l1-1l1-1l1-1l1-0.9l1-0.9
	l1-0.9l1.1-0.9l1.1-0.8l1.1-0.8l1.1-0.8l1.1-0.7l1.1-0.7l1.2-0.7l0,0l1.4-0.8l1.4-0.8l1.4-0.7l1.5-0.7l1.5-0.6l1.5-0.6l1.5-0.6
	l1.5-0.5l0.1,0l3.6-1.2l1.4-0.4l1.2-0.4l1.2-0.3l1.2-0.3l1.1-0.2l1.1-0.2l1.1-0.2l1.1-0.1l1-0.1l1-0.1l1,0l1,0l1,0l1,0.1l0.3,0
	l0.8,0.1l0.6,0l0.4,0l0.1,0l0,0l0,0l0,0l0,0l0,0l0,0l0-0.1l-0.1-0.1l-0.3-0.2l-0.5-0.2l-0.8-0.3l-1.1-0.3l-1.1-0.3l-1.2-0.2
	l-1.3-0.2l-1.4-0.1l-1.5-0.1l-1.7,0l-2.3,0h-0.3l-1.2,0l-1.2,0l-1.2,0.1l-1.2,0.1l0,0l0,0l-1.7,0.2l-1.7,0.3l-1.7,0.4l-1.7,0.5
	l-0.1,0l-0.1,0l-0.1,0l-0.1,0l-0.1-0.1l-0.1-0.1l0-0.1l0-0.1l0-0.1l0.3-1.5l0.4-1.5l0.4-1.5l0.5-1.5l0.5-1.4l0.5-1.4l0.6-1.4
	l0.6-1.4l0,0l0.5-1.1l0.5-1.1l0.5-1.1l0.6-1.1l0-0.1l0-0.1V212l0-0.1l-0.1-0.1l-0.1-0.1l-0.1-0.1l-0.1-0.1l0,0l-2.2-0.6l-2.2-0.5
	L393,210l-2.1-0.4l-2.1-0.3l-2.1-0.3l-2.1-0.2l-2.1-0.1l-2.1-0.1h-2.1l-2,0.1l-2,0.1l-2,0.2l-2,0.3l-2,0.3l-2,0.4l0,0l0,0l0,0l0,0
	l-1.3,0.3l-1.3,0.3l-1.2,0.3l-1.2,0.4l-1.6,0.5l-1.7,0.6l-1.7,0.6l-1.7,0.7l-1.8,0.7l-1.8,0.8l-1.8,0.8l-1.8,0.8l-1.4,0.6l-1.4,0.5
	l-1.4,0.5l-1.5,0.4l-0.2,0.1l-0.1,0.1l0,0l-0.1,0.1l0,0.2v0.1l0,0.1l0,0.1l0.1,0.1l0.1,0.1l0.1,0l0.1,0l0.1,0l0,0h0l1.3,0l1.2,0.1
	l0.6,0.1l0.6,0.1l0.6,0.1l0.6,0.1l0.6,0.2l0.2,0.1l0.2,0.1l0.2,0.1l0.1,0.1l0.1,0.1l0,0.1l0,0l0,0l0,0.1l0,0.1l-0.1,0.1l-0.1,0.1
	l-0.1,0.2l-0.2,0.2l-0.5,0.4l-0.4,0.3l-0.4,0.3l-0.2,0.2l-1.1,1l-1,1l-1,1l-1,1l-1,1l-1,1.1l-0.9,1.1l-0.9,1.1l-0.9,1.1l-0.9,1.1
	l-0.9,1.1l-0.9,1.1l-0.8,1.2l-0.8,1.2l-0.8,1.2l-0.8,1.2l-1,1.7l-1,1.7l-1,1.7l-0.9,1.7l-0.9,1.8l-0.8,1.8l-0.8,1.8l-0.8,1.8
	l-0.7,1.8l-0.7,1.9l-0.6,1.9l-0.6,1.9l-0.6,1.9l-0.5,1.9l-0.5,1.9l-0.4,2l-0.5,2.5l-0.5,2.4l-0.5,2.4l-0.4,2.3l-0.4,2.3l-0.3,2.2
	l-0.3,2.2l-0.3,2.1l0,0.5v0.3l0,0.2l0,0.1l0,0l0,0l0,0l0,0l0,0l0.1,0l0.1,0l0.1-0.2l0.2-0.3l0.2-0.4l0.8-1.3l0.8-1.3l0.8-1.3
	l0.8-1.3l0.8-1.2l0.8-1.2l0.8-1.2l0.8-1.1l0.5-0.6l0.4-0.4l0.2-0.1l0.1-0.1l0.1,0l0.1,0l0,0l0,0l0.1,0.1l0.1,0.1l0,0.2l0,0.2l0,0.6
	l-0.1,0.8l-0.3,1.6l-0.5,2.1l-0.5,2.3l-0.3,1.7l-0.6,3.6l-0.6,3.6l-0.6,3.5l-0.7,3.4l-0.7,3.4l-0.7,3.3l-0.7,3.2l-0.7,3.2l-0.7,2.7
	l-0.7,2.6l-0.7,2.5l-0.8,2.4l-0.8,2.3l-0.9,2.2l-0.9,2.1l-0.9,2l-0.9,1.9l-1,1.9l-1.1,1.9l-1.2,1.8l-1.2,1.8l-1.3,1.8l-1.4,1.8
	l-1.5,1.8l-1.5,1.8l-1.6,1.8l-1.7,1.8l-1.8,1.9l-2,1.9l-2.1,2l-2.3,2.1l-2.5,2.2l-0.1,0.1l-0.1,0.1l0,0.1l0,0.1l0,0l0,0l0.1,0.1
	l0.1,0l0.1,0h0.2l2.8-0.1l2.8-0.2l2.8-0.3l2.8-0.3l1-0.1l1-0.2l0.9-0.2l1-0.2l1-0.2l1-0.2l1-0.3l1-0.3l1-0.3l1-0.3l2-0.7l2-0.8
	l2-0.9l2-1l2-1.1l2.1-1.2l2.1-1.3l2.2-1.4l2.4-1.6l2.6-1.8l3.1-2.2l0.1-0.1l0.1,0l0.1,0l0.1,0l0.1,0l0.1,0.1l0.1,0.1l0.1,0.1l0,0.1
	l0.1,0.4l0,0.4l0,0l0,0l0,0.2l-0.1,0.2l-0.1,0.2l-0.1,0.2l-1.4,2.7l-1.3,2.6l-1.2,2.6l-1.1,2.5l-1,2.5l-0.9,2.4l-0.9,2.4l-0.8,2.3
	l-0.4,1.2l-0.3,1.2l-0.3,1.3l-0.3,1.3l-0.2,1.3l-0.2,1.3l-0.2,1.3l-0.1,1.3l-0.1,1.3l-0.1,1.3l0,1.3l0,1.3l0,1.3l0.1,1.3l0.1,1.3
	l0.1,1.3l0.2,1.3l0.2,1.3l0.3,1.3l0.3,1.3l0.3,1.3l0.4,1.3l0.4,1.3l0.4,1.3l0.5,1.2l0.5,1.2l0.5,1.2l0.6,1.2l0.6,1.2l0.6,1.1
	l0.6,1.1l0.7,1.1l0.2,0.3l0.2,0.2l0.1,0.1l0.1,0l0.1,0l0,0l0,0l0,0l0,0l0-0.1l0-0.2l0-0.3l0-0.4l-0.1-1.3l-0.1-1.3l0-1.2l0-1.2
	l0-1.2l0-1.2l0.1-1.2l0.1-1.2l0.1-1.2l0.1-1.2l0.1-1.1l0.2-1.1l0.2-1.1l0.2-1.1l0.2-1.1l0.2-1.1l0.3-1.1l0.3-1l0.3-1l0.3-1l0.4-1
	l0.4-1l0.4-1l0.4-1l0.4-0.9l0.5-0.9l0.5-0.9l0.5-0.9l0.5-0.9l0.5-0.9l0.6-0.8l0.6-0.8l0.6-0.8l0.6-0.7l0.6-0.7l0.6-0.7l0.6-0.7
	l0.7-0.7l0.7-0.7l0.7-0.7l0.1-0.1l0.1,0l0.1,0h0.1l0.1,0l0.1,0.1l0.1,0.1l0.1,0.1l0,0.1l0,0.1l0,1.6l0,1.6l0.1,1.6l0.1,1.6l0.2,1.6
	l0.2,1.7l0.2,1.6l0.3,1.7l0.3,1.7l0.4,1.7l0.4,1.7l0.5,1.7l0.5,1.7l0.5,1.7l0.6,1.7l0.6,1.7l0.7,1.7l0.7,1.7l0.8,1.7l0.8,1.7
	l0.8,1.7l0.9,1.7l0.9,1.7l1,1.7l1,1.7l1.1,1.7l1.1,1.7l1.1,1.6l1.2,1.7l1.2,1.6l1.2,1.6l1.3,1.6l0.1,0.1l0.1,0.1l0.1,0l0.1,0l0,0
	l0.1,0l0.1,0l0.1-0.1l0.1-0.1l1.3-1.7l1.2-1.7l1.2-1.7l1.2-1.7l1.1-1.8l1.1-1.8l1.1-1.8l1-1.8l1-1.8l1-1.8l0.9-1.8l0.9-1.9l0.8-1.9
	l0.8-1.9l0.8-1.9l0.7-1.9l0,0l0.7-2.1l0.7-2.1l0.6-2.1l0.6-2.1l0.3-1.1l0.2-1l0.2-1l0.2-1l0.2-1l0.2-1l0.2-1l0.1-1l0.1-1l0.1-1
	l0.1-1l0-1l0-1l0-1l0-1l-0.1-1l0-0.4l0-0.3l0.1-0.2l0-0.1l0.1-0.1l0,0l0,0l0,0l0.1,0h0.1l0.2,0.1l0.2,0.2l0.3,0.2l0.9,0.9l0.8,0.9
	l0.8,0.9l0.8,0.9l0.7,0.9l0.7,1l0.7,1l0.7,1l0.6,1l0.6,1l0.6,1l0.6,1l0.5,1l0.5,1.1l0.5,1.1l0.5,1.1l0.5,1.4l0.5,1.4l0.4,1.5
	l0.4,1.5l0.3,1.5l0.3,1.5l0.2,1.5l0.2,1.5l0.2,1.5l0.1,1.5l0,1.6l0,1.6l0,1.6l-0.1,1.6l-0.1,1.6l-0.2,1.6l0,0.1l0,0.1l0,0.1l0.1,0.1
	l0.1,0l0.1,0l0.1,0l0.1,0l0.1,0l0.3-0.3l0,0l0.1-0.2l0.1-0.2l0.8-1.4l0.7-1.4l0.7-1.4l0.6-1.4l0.6-1.4l0.5-1.4l0.5-1.4l0.5-1.4
	l0.4-1.4l0.4-1.4l0.3-1.4l0.3-1.4l0.2-1.4l0.2-1.4l0.2-1.4l0.1-1.4l0,0l0.1-1.4l0-1.4l0-1.4l0-1.4l-0.1-1.4l-0.1-1.5l-0.2-1.4
	l-0.2-1.5l-0.3-1.5l-0.3-1.5l-0.3-1.5l-0.4-1.5l-0.4-1.5l-0.5-1.5l-0.5-1.5l-0.6-1.5l-0.8-1.9l-0.8-1.9l-0.9-1.9l-0.9-1.9l-0.9-1.9
	l-1-1.9l-1-1.9l-1-1.9l-0.2-0.5l-0.1-0.4l0-0.3l0-0.1l0-0.1l0.1-0.3l0.2-0.2l0.2-0.1l0.2-0.1l0,0l0.2,0l0.2,0l0.2,0.1l0.2,0.2
	l2.4,1.9l2.3,1.7l2.2,1.6l2.1,1.5l2.1,1.3l2.1,1.2l2,1.2l2,1l2,1l1,0.5l1,0.4l1,0.4l1,0.4l1,0.3l1,0.3l1,0.3l1,0.3l1,0.3l1,0.2
	l1,0.2l1,0.2l1,0.2l1,0.2l1.1,0.2l2.6,0.3l2.6,0.2l2.5,0.2l2.4,0.1h0.2l0.2,0l0.1,0l0.1-0.1v-0.1l-0.1-0.1l-0.1-0.1l-0.2-0.2
	l-2.7-2.3l-2.6-2.2l-2.5-2.2l-2.4-2.1l-2.4-2.1l-2.3-2.1l-2.2-2l-2.2-2l-2.1-2l-2.1-2l-2-2l-1.9-2l-1.9-2l-1.9-2l-1.8-2l-1.8-2
	l-1.7-2l-1.7-2l-1.6-2l-1.6-2l-1.6-2l-1.5-2l-1.5-2l-1.4-2l-1.4-2l-1.4-2l-1.3-2l-1.3-2l-1.2-2l-1.2-2l-1.2-2l-1.1-2l-0.2-0.3
	l-0.1-0.2l-0.1-0.1l-0.1,0l0,0l0,0l0,0l0,0.1l0,0.1l0,0.2l0,0.3l0.1,1.4l0.1,1.4v1.3l0,1.3l-0.2,3.2l-0.2,3.1l-0.2,3l-0.1,2.9
	l-0.1,2.8l-0.1,2.7l0,2.6l0,2.5l0,0.6l-0.1,0.4l0,0.2l-0.1,0.1l-0.1,0.1l-0.1,0.1l0,0l0,0l0,0l0,0l0,0l-0.1,0l-0.1,0l-0.1,0
	l-0.1-0.1l-0.3-0.3l-0.4-0.4l-0.9-1.1l-0.8-1.1l-0.8-1.1L380,323l-0.7-1.1l-0.7-1.1l-0.7-1.2l-0.7-1.2l-0.6-1.2l-0.6-1.2l-0.6-1.2
	l-0.6-1.2l-0.5-1.2l-0.5-1.2l-0.5-1.2l-0.5-1.2l0,0l0,0l0,0l0,0l0,0l-0.4-1.1l-0.4-1.1l-0.4-1.1l-0.3-1.1L371,303l-0.3-1.2l-0.3-1.2
	l-0.2-1.2l-0.2-1.2l-0.2-1.2l-0.2-1.2l-0.2-1.2l-0.1-1.2l-0.1-1.2l-0.1-1.2l-0.1-1.2l0-1.6l0-1.6l0-1.6l0.1-1.6l0.1-1.6l0.1-1.6
	l0.2-1.5l0.2-1.5l0.2-1.5l0.3-1.5l0.3-1.5l0.4-1.5l0.4-1.5l0.4-1.4l0.5-1.4l0.5-1.4l0.1-0.2l0-0.2l0,0l0-0.4l0-0.1l-0.1-0.1l-0.1,0
	l-0.1,0l0,0l0,0l-0.1,0l-1.6,1.3l-2,1.6l-1.4,1.2l-1.3,1.1l-1.1,1l-1.1,1l-1,1l-0.9,1l-0.9,1l-0.3,0.4l-0.3,0.2l-0.2,0.1l-0.1,0
	l-0.1,0l0,0l0,0l-0.1-0.1l0-0.1l0-0.2l0-0.4L360.3,274.1z M412.4,217l0.1-0.1l0.1-0.1l0.1-0.1l0-0.1l0-0.2l0-0.2l0,0l0-0.1l-0.1-0.2
	l-0.1-0.1l0,0l-0.1-0.1l-0.2,0l-0.4,0l-0.4,0.1l-0.3,0.2l-0.3,0.2l0,0l0,0l0,0l0,0l-0.2,0.2l-0.2,0.2l-0.1,0.2l-0.1,0.3l0,0.1v0.1
	l0,0.2l0,0.1l0.1,0.1l0.1,0.1l0,0l0,0l0,0l0.1,0l0.1,0l0.1,0l0.1-0.1L412.4,217z M287,324.6l-1.2-0.8l-1.1-0.9l-1.1-0.9l-1.1-0.9
	l-1.1-1l-1.1-1.1l-1.1-1.1l-1.1-1.1l-1-1.2l-1-1.2l-1-1.2l-1-1.3l-0.9-1.3l-0.9-1.4l-0.9-1.4l-0.9-1.4l-0.8-1.5l-0.8-1.5l-0.8-1.5
	l-0.8-1.6l-0.7-1.6l-0.7-1.6l-0.7-1.7l-0.6-1.7l-0.6-1.8l-0.6-1.8l-0.6-1.9l-0.6-1.9l-0.6-2l-0.5-2l-0.5-2.1l-0.5-2.1l-0.5-2.2
	l-0.5-2.3l-0.5-2.4l-0.5-2.5l-0.5-2.8l-0.5-2.5l-0.5-2.2l-0.5-2.1l-0.5-2l-0.5-1.9l-0.6-1.8l-0.6-1.7l-0.7-1.7l-0.7-1.6l-0.7-1.5
	l-0.8-1.5l-0.8-1.4l-0.9-1.4l-0.9-1.3l-1-1.3l-0.6-0.7l-0.6-0.7l-0.6-0.6l-0.6-0.6l-0.6-0.6l-0.7-0.6l-0.7-0.6l-0.7-0.6l-1.8-1.5
	l-1.7-1.4l-1.6-1.3l-1.6-1.2l-1.5-1.1l-1.4-1l-1.3-0.8l-1.3-0.7l-2.2-1.2l-2.2-1.2l-2.1-1.2l-2.1-1.3l-2.1-1.3l-2.1-1.3l-2-1.3
	l-2-1.3l-0.1,0h-0.1l-0.1,0l-0.1,0.1l0,0l0,0.1v0.1l0,0l0,0.1l0.1,0.1l1.2,1.2l1.2,1.2l1.2,1.2l1.1,1.2l1.1,1.2l1.1,1.2l1.1,1.2
	l1,1.3l1,1.3l1,1.3l1,1.3l0.9,1.3l0.9,1.3l0.9,1.3l0.9,1.4l0.8,1.4l0,0l0,0l0,0l0,0l0.8,1.3l0.8,1.3l0.8,1.4l0.7,1.4l0.7,1.4
	l0.7,1.4l0.7,1.4l0.6,1.4l0.6,1.4l0.6,1.5l0.6,1.5l0.6,1.5l0.5,1.5l0.5,1.5l0.5,1.5l0.5,1.5l1.1,4.1l1.5,5.6l1.4,5.3l1.1,3.9l1,3.5
	l1,3.2l0.5,1.6l0.5,1.5l0.5,1.4l0.5,1.4l0.5,1.4l0.6,1.3l0.6,1.3l0.6,1.3l0.6,1.3l0.6,1.2l0.6,1.2l0.7,1.2l0.7,1.1l0.7,1.1l0.7,1.1
	l0.7,1.1l0.8,1l0.8,1l0.8,1l0.8,1l0.8,1l0.9,0.9l0.9,0.9l0.9,0.9l1.1,1.1l1.2,1l1.2,1l1.3,1l1.3,0.9l1.4,0.9l1.4,0.8l1.4,0.8
	l1.5,0.7l1.5,0.7l1.6,0.7l1.6,0.6l1.6,0.6l1.7,0.5l1.7,0.5l1.8,0.5l0.5,0.1l0.4,0l0.2,0l0.1,0l0,0l0,0l0,0l0,0l0,0l0,0l0,0l0-0.1
	l0-0.1l-0.1-0.2l-0.3-0.3L287,324.6z M489.7,262.9l0.7-2.4l0.7-2.3l0.8-2.3l0.8-2.3l0.9-2.3l0.9-2.2l1-2.2l1-2.2l1.1-2.1l1.1-2.1
	l1.1-2.1l1.2-2l1.2-2l1.3-2l1.3-1.9l1.4-1.9l1.4-1.9l1.5-1.8l0.7-0.8l0.8-0.9l0.9-0.9l1.2-1.2l1.6-1.6l1.1-1.2l0.5-0.5l0.3-0.4
	l0.2-0.3l0-0.1l0-0.1l0,0l0,0l0,0l-0.1,0L516,217l-0.5,0.2l-0.6,0.4l-8.4,5.2l-8.7,5.2l-1.6,1l-1.5,1l-1.4,1l-1.4,1l-1.3,1l-1.2,1
	l-1.2,1l-1.1,1l-1.1,1l-1,1l-1,1.1l-0.9,1.1l-0.9,1.1l-0.9,1.1l-0.8,1.1l-0.8,1.2l-0.5,0.9l-0.5,0.9l-0.5,0.9l-0.5,0.9l-0.4,0.9
	l-0.4,0.9l-0.4,0.9l-0.4,1l-0.3,1l-0.3,1l-0.3,1l-0.3,1l-0.3,1l-0.3,1.1l-0.2,1.1l-0.2,1.1l-0.7,3.4l-0.7,3.4l-0.8,3.5l-0.8,3.5
	l-0.8,3.6l-0.9,3.6l-0.9,3.7l-1,3.8L467,290l-0.4,1.4l-0.4,1.4l-0.5,1.4l-0.5,1.4l-0.5,1.3l-0.5,1.3l-0.6,1.3l-0.6,1.3l-0.6,1.2
	l-0.6,1.2l-0.7,1.2l-0.7,1.2l-0.7,1.2l-0.7,1.2l-0.8,1.1l0,0l0,0l-1.1,1.5l-1.1,1.5l-1.2,1.5l-1.2,1.4l-1.3,1.4l-1.3,1.4l-1.4,1.3
	l-1.4,1.3l-1,0.8l-1.1,0.8l-1.3,0.9l-1.8,1.2l-1.2,0.8l-0.3,0.2l-0.2,0.2l-0.1,0.1l0,0.1v0l0,0l0,0l0,0l0,0l0,0l0,0l0.1,0l0.2,0
	l0.3,0l0.4-0.1l1.8-0.4l1.8-0.4l1.8-0.5l1.7-0.5l1.7-0.5l1.6-0.6l1.6-0.6l1.5-0.6l1.5-0.7l1.4-0.7l1.3-0.7l1.3-0.7l1.2-0.8l1.1-0.8
	l1.1-0.8l1-0.8l1.4-1.3l1.3-1.3l0.8-0.9l0.8-0.9l0.8-0.9l0.8-0.9l0.8-1l0.8-1l0.7-1l0.7-1l0.7-1l0.7-1.1l0.7-1.1l0.6-1.1l0.6-1.1
	l0.6-1.2l0.6-1.2l0.6-1.2l0.5-1.2l0.5-1.3l0.5-1.3l0.5-1.3l0.5-1.4l0.5-1.4l1-3l1-3.1l1-3.4l1-3.8l1.4-5.2L489.7,262.9z
	 M261.4,356.3l-2.1,2.4l-2.1,2.4l-2.1,2.4l-2.2,2.4l-2.2,2.3l-2.2,2.3l-2.2,2.3l-2.3,2.2l0,0l0,0l0,0l-2.8,2.7l-2.8,2.7l-0.3,0.3
	l-0.1,0.1v0.1l0,0l0,0l0.1,0l0.1,0l0.4-0.2l0.9-0.4l0.9-0.4l0.9-0.5l0.9-0.5l0.9-0.5l0.9-0.5l0.8-0.5l0.8-0.5l1.2-0.9l1.2-0.9l1.1-1
	l1.1-1l1.1-1.1l1.1-1.1l1-1.2l1-1.2l1-1.3l0.9-1.3l0.9-1.4l0.9-1.5l0.9-1.5l0.8-1.6l0.8-1.7L261.4,356.3L261.4,356.3L261.4,356.3
	L261.4,356.3z M469.9,358.2l0.8,1.7l0.8,1.6l0.9,1.6l0.9,1.5l1,1.5l1,1.5l1.1,1.4l1.2,1.4l0,0l0,0l0,0l0,0l0.7,0.8l0.7,0.8l0.8,0.8
	l0.8,0.7l0.8,0.7l0.8,0.7l0.8,0.7l0.8,0.7l0.9,0.6l0.9,0.6l0.9,0.6l0.9,0.6l0.9,0.6l1,0.6l1,0.5l1,0.5l0.3,0.1l0.1,0l0,0l0,0l0,0
	l0,0l0,0l0-0.1l-0.2-0.2l-2.8-2.7l-2.8-2.7l-2.7-2.8l-2.7-2.8l-2.6-2.9l-2.6-2.9l-2.5-3l-2.5-3l-0.4-0.4l-0.1-0.1l-0.1,0l0,0l0,0.1
	l0,0.1L469.9,358.2z"/>
<path class="st0" d="M360,227.4l0.6-1l0.6-0.9l0.5-0.6l0.5-0.6l0.5-0.6l0.6-0.6l0.6-0.5l0.6-0.5l0.7-0.5l0.7-0.5l0.7-0.5l0.7-0.4
	l0.7-0.4l0.8-0.4l0.8-0.4l0.8-0.3l0.9-0.3l0.9-0.3l0.9-0.3l1-0.2l1-0.2l1-0.2l1-0.2l1-0.2l1.1-0.1l1.1-0.1l1.1-0.1l1.1-0.1l1.2,0
	l1.2,0h1.2l1.2,0l1.2,0l1.2,0.1l0.1,0.1l0.1,0.1l0.1,0.1l0,0.2l0,0l-0.1,0.1l-0.4,0.3l-0.4,0.4l-0.4,0.4l-0.4,0.4l-0.4,0.5l-0.4,0.5
	l-0.8,1.1l-0.7,1.2l-0.8,1.4l-0.8,1.6l-1,2.1L383,228l-0.1,0.2l-0.2,0.2l-0.2,0.2l-0.2,0.2l-0.2,0.1l-0.2,0.1l-0.3,0.1l-0.3,0h0
	h-0.4l-0.4,0l-0.4-0.1l-0.4-0.1l-0.4-0.1l-0.4-0.1l-0.4-0.2l-0.4-0.2l-0.4-0.2l-0.4-0.2l-0.9-0.6l-1-0.7l-1.3-1l-1.3-1l-0.3-0.2
	l-0.4-0.2l-0.5-0.1l-0.5,0l-0.6,0l-0.6,0.1l-0.7,0.1l-0.7,0.2l-0.8,0.2l-0.8,0.3l-0.9,0.4l-0.9,0.4l-1,0.5l-1,0.5l-1.1,0.6l-1.3,0.7
	l-0.1,0l-0.4,0.2l-0.3,0.1l-0.2,0l-0.1,0l-0.1,0l0,0l0,0l0,0l0,0l0,0l0-0.1l0-0.2l0.1-0.3L360,227.4z"/>
</svg>
